<svg width="50" height="50" viewBox="0 0 50 50" fill="none" xmlns="http://www.w3.org/2000/svg">
<g clip-path="url(#clip0)">
<path d="M35.1458 18.0207L34.9375 17.8957C34.7697 17.785 34.5734 17.7253 34.3724 17.7236C34.1714 17.722 33.9743 17.7785 33.8047 17.8864C33.6351 17.9944 33.5004 18.149 33.4167 18.3318C33.3331 18.5146 33.3041 18.7177 33.3333 18.9165C33.3648 19.1251 33.3494 19.3381 33.2881 19.5399C33.2269 19.7418 33.1213 19.9274 32.9791 20.0832C32.7558 20.3177 32.4877 20.5049 32.1907 20.6337C31.8936 20.7626 31.5737 20.8304 31.25 20.8332C30.7056 20.8078 30.1903 20.5802 29.805 20.1949C29.4196 19.8095 29.192 19.2942 29.1666 18.7499C29.122 17.6189 29.2844 16.4892 29.6458 15.4165C30.0686 14.1414 30.2591 12.8007 30.2083 11.4582C30.2083 7.29154 29.7083 5.04154 24.6666 0.291544C24.5071 0.134382 24.3012 0.0328173 24.0793 0.00191175C23.8575 -0.0289938 23.6317 0.012405 23.4353 0.119969C23.2388 0.227534 23.0823 0.395536 22.9889 0.599065C22.8955 0.802594 22.8701 1.03081 22.9166 1.24988C24.125 7.20821 20.4791 10.4165 15.8541 14.3124C14.5833 15.479 13.1041 16.6665 11.7708 18.0207C5.47913 24.2915 4.16663 29.8124 4.16663 33.3332C4.16663 39.5832 6.47913 47.479 17.4791 49.9999H17.7291C17.9633 50.0059 18.1926 49.9328 18.3801 49.7924C18.5676 49.6521 18.7023 49.4526 18.7625 49.2263C18.8227 48.9999 18.8049 48.7599 18.7119 48.545C18.6189 48.33 18.4561 48.1526 18.25 48.0415C14.3125 44.3957 13.5416 42.5624 13.5416 40.6249C13.7478 38.6075 14.6201 36.7163 16.0208 35.2499C15.9884 36.1086 16.2133 36.9574 16.6666 37.6874C17.1623 38.3097 17.7982 38.806 18.5224 39.1355C19.2466 39.465 20.0385 39.6184 20.8333 39.5832C23.2916 39.5832 25 37.4999 25 34.3749C24.8124 32.7885 24.0125 31.3382 22.7708 30.3332C21.748 29.5244 21.0584 28.3676 20.8333 27.0832C20.8377 26.2524 21.0077 25.4309 21.3333 24.6665C21.8516 25.5509 22.564 26.306 23.4166 26.8749C23.9375 27.2499 24.7083 27.7499 25.6041 28.3124C29.0625 30.3957 35.4791 34.5624 35.4791 38.5207C35.4791 43.6874 33.5833 45.2707 29.6666 48.0832C29.4843 48.2105 29.3475 48.3927 29.2762 48.6033C29.2048 48.8139 29.2028 49.0418 29.2703 49.2537C29.3378 49.4655 29.4714 49.6502 29.6514 49.7808C29.8314 49.9113 30.0484 49.9808 30.2708 49.979H30.5C38.0625 48.3124 45.8958 41.6457 45.8958 33.3124C45.8958 24.979 38.625 20.2915 35.1458 18.0207Z" fill="#EE4323"/>
</g>
<defs>
<clipPath id="clip0">
<rect width="50" height="50" fill="white"/>
</clipPath>
</defs>
</svg>
