<svg width="50" height="50" viewBox="0 0 50 50" fill="none" xmlns="http://www.w3.org/2000/svg">
<path d="M13.6412 13.6126L10.3811 10.3782L10.3937 33.7399L10.4331 34.8306C10.4489 35.3462 10.5473 35.9243 10.7049 36.5259L36.5263 45.5571L42.9866 42.7212L42.9921 42.7118L13.6396 13.6126H13.6412Z" fill="#00C4B3"/>
<path d="M10.7057 36.5259H10.7081C10.7057 36.5165 10.7017 36.5056 10.697 36.4946C10.7025 36.5063 10.7025 36.5181 10.7049 36.5259H10.7057ZM42.9803 42.7212L36.52 45.5571L10.7025 36.5259C11.1949 38.404 12.2877 40.5149 13.4615 41.6665L21.8836 49.9767L40.6247 50.0001L42.9724 42.7212H42.9803Z" fill="#22D3C5"/>
<path d="M10.4693 10.3792L0.429899 25.4143C-0.403635 26.2971 0.0123442 28.119 1.35403 29.4612L7.14938 35.255L10.7923 36.5284C10.6348 35.9284 10.5355 35.3565 10.5205 34.8331L10.4812 33.7425L10.4693 10.3807V10.3792Z" fill="#0075C9"/>
<path d="M36.7391 10.6797C36.1324 10.5274 35.551 10.4313 35.0271 10.4165L33.8627 10.3743L10.3811 10.3797L42.9913 42.7126L45.8559 36.3063L36.7406 10.6813L36.7391 10.6797Z" fill="#0075C9"/>
<path d="M36.7091 10.6742C36.7193 10.6781 36.7304 10.6804 36.739 10.682V10.6789C36.7288 10.6765 36.7193 10.6765 36.7091 10.6726V10.6742ZM41.9207 13.4226C40.735 12.239 38.6354 11.157 36.739 10.682L45.8543 36.3047L42.9866 42.7109L49.9842 40.4938L50 21.4687L41.9199 13.4218L41.9207 13.4226Z" fill="#00A8E1"/>
<path d="M35.4612 7.08979L29.6312 1.33978C28.2714 0.0139953 26.4342 -0.400068 25.5518 0.424933L10.3906 10.3781L33.8722 10.3726L35.0366 10.4148C35.5605 10.4304 36.1427 10.5257 36.7486 10.6781L35.4628 7.08823L35.4612 7.08979Z" fill="#00C4B3"/>
</svg>
