<svg width="32" height="45" viewBox="0 0 32 45" fill="none" xmlns="http://www.w3.org/2000/svg">
<g clip-path="url(#clip0)">
<path d="M8.00039 45C12.4155 45 15.9988 41.64 15.9988 37.5V30H8.00039C3.58529 30 0.00201416 33.36 0.00201416 37.5C0.00201416 41.64 3.58529 45 8.00039 45Z" fill="#0ACF83"/>
<path d="M0.00201416 22.5C0.00201416 18.36 3.58529 15 8.00039 15H15.9988V30H8.00039C3.58529 30 0.00201416 26.64 0.00201416 22.5Z" fill="#A259FF"/>
<path d="M0.00201416 7.5C0.00201416 3.36 3.58529 0 8.00039 0H15.9988V15H8.00039C3.58529 15 0.00201416 11.64 0.00201416 7.5Z" fill="#F24E1E"/>
<path d="M16 0H23.9984C28.4135 0 31.9968 3.36 31.9968 7.5C31.9968 11.64 28.4135 15 23.9984 15H16V0Z" fill="#FF7262"/>
<path d="M31.9968 22.5C31.9968 26.64 28.4135 30 23.9984 30C19.5833 30 16 26.64 16 22.5C16 18.36 19.5833 15 23.9984 15C28.4135 15 31.9968 18.36 31.9968 22.5Z" fill="#1ABCFE"/>
</g>
<defs>
<clipPath id="clip0">
<rect width="32" height="45" fill="white"/>
</clipPath>
</defs>
</svg>
