<svg width="40" height="50" viewBox="0 0 40 50" fill="none" xmlns="http://www.w3.org/2000/svg">
<path d="M11.4305 36.536L19.0462 44.2283L39.9999 23.072H24.7639L11.4305 36.536Z" fill="#39CEFD"/>
<path d="M24.7639 0H39.9999L7.62039 32.6899L0 24.9976L24.7639 0Z" fill="#39CEFD"/>
<path d="M19.0463 44.2284L24.7639 49.9953H40L26.6667 36.5361L19.0463 44.2284Z" fill="#03569B"/>
<path d="M30.3481 40.2764L26.6667 36.5361L19.0463 44.2284L30.3481 40.2764Z" fill="url(#paint0_linear)"/>
<path d="M11.4299 36.5334L19.0505 28.8408L26.6716 36.5334L19.0505 44.2259L11.4299 36.5334Z" fill="#16B9FD"/>
<path d="M39.9999 23.0721L26.6666 36.5361L39.9999 50H24.7639L11.4258 36.5361L24.7639 23.0721H39.9999ZM24.7639 0L0 24.9976L7.62039 32.6899L39.9999 0H24.7639V0Z" fill="url(#paint1_radial)"/>
<defs>
<linearGradient id="paint0_linear" x1="21.2702" y1="45.7129" x2="26.9989" y2="40.0377" gradientUnits="userSpaceOnUse">
<stop stop-color="#1A237E" stop-opacity="0.4"/>
<stop offset="1" stop-color="#1A237E" stop-opacity="0"/>
</linearGradient>
<radialGradient id="paint1_radial" cx="0" cy="0" r="1" gradientUnits="userSpaceOnUse" gradientTransform="translate(1.12373 3.40785) scale(60.597 61.1689)">
<stop stop-color="white" stop-opacity="0.1"/>
<stop offset="1" stop-color="white" stop-opacity="0"/>
</radialGradient>
</defs>
</svg>
