<svg width="50" height="50" viewBox="0 0 50 50" fill="none" xmlns="http://www.w3.org/2000/svg">
<path d="M50 0H0V50H50V0Z" fill="#F7DF1E"/>
<path d="M33.5873 39.0625C34.5944 40.7069 35.9047 41.9156 38.2222 41.9156C40.169 41.9156 41.4126 40.9426 41.4126 39.5982C41.4126 37.9871 40.1349 37.4164 37.992 36.4791L36.8174 35.9752C33.4269 34.5307 31.1746 32.7212 31.1746 28.8958C31.1746 25.372 33.8595 22.6895 38.0555 22.6895C41.0428 22.6895 43.1904 23.7291 44.738 26.4514L41.0793 28.8006C40.2738 27.3561 39.4047 26.7871 38.0555 26.7871C36.6793 26.7871 35.8071 27.6601 35.8071 28.8006C35.8071 30.2101 36.6801 30.7807 38.696 31.6537L39.8706 32.1569C43.8626 33.8688 46.1166 35.6141 46.1166 39.5379C46.1166 43.768 42.7936 46.0855 38.3309 46.0855C33.9674 46.0855 31.1484 44.0061 29.769 41.2807L33.5873 39.0625ZM16.9896 39.4696C17.7277 40.7791 18.3992 41.8863 20.0134 41.8863C21.5571 41.8863 22.5309 41.2823 22.5309 38.9339V22.9577H27.2293V38.9974C27.2293 43.8625 24.3769 46.0768 20.2134 46.0768C16.4515 46.0768 14.273 44.1299 13.165 41.7851L16.9896 39.4696Z" fill="black"/>
</svg>
