<svg width="50" height="50" viewBox="0 0 50 50" fill="none" xmlns="http://www.w3.org/2000/svg">
<path d="M18.6004 38.3281C18.6004 38.3281 16.7383 39.4117 19.9273 39.7773C23.7914 40.2187 25.766 40.1555 30.023 39.3508C30.023 39.3508 31.1445 40.052 32.7078 40.6598C23.1613 44.7496 11.1031 40.4227 18.6004 38.3281ZM17.4332 32.9902C17.4332 32.9902 15.3441 34.5367 18.5359 34.8672C22.6637 35.2934 25.9227 35.3281 31.5648 34.2422C31.5648 34.2422 32.3434 35.0332 33.5695 35.4652C22.0297 38.8402 9.17656 35.7309 17.4332 32.9902V32.9902Z" fill="#0074BD"/>
<path d="M27.2664 23.9339C29.6199 26.6429 26.6492 29.0784 26.6492 29.0784C26.6492 29.0784 32.6214 25.996 29.8793 22.1343C27.3171 18.5347 25.3531 16.7468 35.9867 10.5796C35.9867 10.58 19.2949 14.7476 27.2664 23.9339V23.9339Z" fill="#EA2D2E"/>
<path d="M39.8918 42.277C39.8918 42.277 41.2703 43.4137 38.3731 44.2922C32.8645 45.961 15.441 46.4641 10.602 44.359C8.8633 43.602 12.125 42.5524 13.1512 42.3309C14.2211 42.0992 14.8321 42.1414 14.8321 42.1414C12.8973 40.7793 2.32697 44.8172 9.46369 45.9754C28.925 49.1301 44.9391 44.5547 39.8918 42.277V42.277ZM19.4969 27.4586C19.4969 27.4586 10.6352 29.5637 16.359 30.3289C18.7762 30.6524 23.5926 30.5782 28.0821 30.2016C31.75 29.8934 35.4309 29.2352 35.4309 29.2352C35.4309 29.2352 34.1387 29.7895 33.2028 30.4278C24.202 32.7953 6.81838 31.6926 11.8235 29.2723C16.0547 27.2258 19.4969 27.4586 19.4969 27.4586V27.4586ZM35.3942 36.3442C44.543 31.5914 40.3125 27.0239 37.3598 27.6391C36.6379 27.7895 36.3141 27.9203 36.3141 27.9203C36.3141 27.9203 36.5828 27.4989 37.0953 27.3176C42.9364 25.2649 47.4278 33.3735 35.2114 36.5852C35.2114 36.5844 35.3516 36.4574 35.3942 36.3442V36.3442Z" fill="#0074BD"/>
<path d="M29.8793 0.619873C29.8793 0.619873 34.9449 5.68862 25.0735 13.4804C17.1571 19.7328 23.2684 23.2968 25.0707 27.3707C20.4492 23.2015 17.0594 19.5308 19.3332 16.1148C22.6723 11.1015 31.9227 8.66987 29.8793 0.619873V0.619873Z" fill="#EA2D2E"/>
<path d="M20.396 49.227C29.1757 49.7883 42.6617 48.9145 42.9808 44.7598C42.9808 44.7598 42.3671 46.3348 35.7242 47.5844C28.2296 48.9953 18.9843 48.8309 13.5027 47.9258C13.5027 47.9262 14.6257 48.8559 20.396 49.227V49.227Z" fill="#0074BD"/>
</svg>
