<svg width="50" height="50" viewBox="0 0 50 50" fill="none" xmlns="http://www.w3.org/2000/svg">
<path fill-rule="evenodd" clip-rule="evenodd" d="M3.00245 34.7754H4.42145V28.4806L6.63754 33.9689C6.88856 34.6286 7.24918 34.873 7.94743 34.873C8.64568 34.873 8.98477 34.6283 9.24411 33.9689L11.4492 28.4806V34.7754H12.8792V28.4806C12.8792 27.8697 12.6607 27.5757 12.2022 27.4168C11.1216 27.0503 10.4011 27.3681 10.0737 28.1867L7.90168 33.6138L5.80571 28.1867C5.48913 27.3681 4.75761 27.0503 3.6662 27.4168C3.21848 27.5757 3.00024 27.8694 3.00024 28.4806L3 34.7754H3.00245ZM14.0604 29.654H15.4904V33.1133C15.4797 33.3086 15.545 33.7489 16.3223 33.7607C16.7259 33.773 19.4005 33.7607 19.422 33.7607V29.6293H20.8521V35.2888C20.8521 36.6822 19.3107 36.9874 18.5924 37H14.0956V35.937H18.6039C19.5209 35.8269 19.4118 35.3138 19.4118 35.1425V34.7267H16.3878C14.9796 34.7143 14.0734 34.0177 14.0629 33.2232V29.6535L14.0604 29.654ZM44.7339 25.6446C43.861 25.6199 43.1838 25.718 42.6162 25.987C42.4527 26.061 42.1905 26.061 42.1689 26.2928C42.2563 26.39 42.2668 26.5492 42.3434 26.684C42.4743 26.9286 42.7037 27.2582 42.911 27.4292C43.1405 27.625 43.3697 27.8204 43.6095 27.9916C44.0352 28.2847 44.5154 28.456 44.9301 28.7494C45.1704 28.9206 45.4104 29.1406 45.6506 29.3242C45.773 29.422 45.8471 29.5811 46 29.6419V29.605C45.9237 29.4954 45.9016 29.3365 45.8256 29.2137C45.7162 29.0918 45.6071 28.9814 45.4977 28.8595C45.1814 28.3828 44.7882 27.967 44.3625 27.625C44.0131 27.356 43.2493 26.9895 43.1074 26.5374L43.0859 26.5128C43.3257 26.4881 43.6095 26.3903 43.839 26.3169C44.2103 26.2073 44.5485 26.2314 44.9301 26.1215C45.105 26.0722 45.2795 26.0114 45.4544 25.9503V25.8407C45.258 25.6207 45.1161 25.3273 44.9088 25.1197C44.3522 24.5819 43.7406 24.0562 43.1074 23.6162C42.7691 23.3718 42.3324 23.2126 41.9722 23.0052C41.8408 22.9318 41.6229 22.8951 41.5465 22.7729C41.3496 22.5044 41.2407 22.1497 41.0988 21.8316C40.7825 21.1593 40.4766 20.4138 40.2039 19.7048C40.0074 19.2281 39.887 18.7514 39.6473 18.3115C38.5228 16.2335 37.3 14.9746 35.4225 13.7399C35.0189 13.4832 34.5386 13.3728 34.028 13.2385L33.2094 13.1892C33.0345 13.1037 32.86 12.8714 32.7071 12.7613C32.0849 12.3213 30.4802 11.3679 30.0215 12.627C29.7267 13.4215 30.4582 14.2037 30.7066 14.6072C30.8925 14.8883 31.1323 15.2061 31.2636 15.5239C31.337 15.7316 31.3615 15.9518 31.4381 16.1718C31.6125 16.7096 31.7764 17.3088 32.0057 17.8101C32.128 18.0668 32.2564 18.3361 32.4094 18.5682C32.4967 18.7024 32.6496 18.7638 32.6821 18.9838C32.5292 19.2284 32.5187 19.5947 32.4314 19.9007C32.0382 21.282 32.1911 22.9932 32.7477 24.0074C32.9226 24.3129 33.3349 24.9854 33.8942 24.7285C34.3854 24.5085 34.2758 23.8118 34.4177 23.2006C34.4508 23.054 34.4287 22.9562 34.4941 22.8581V22.8828L34.9418 23.8973C35.2802 24.4961 35.8698 25.1197 36.3608 25.5355C36.6226 25.7555 36.83 26.1347 37.1574 26.2689V26.232H37.1359C37.0703 26.1224 36.9719 26.0731 36.8846 25.9876C36.6881 25.7676 36.4699 25.4986 36.317 25.2542C35.8588 24.5698 35.4551 23.8118 35.0947 23.0296C34.9198 22.6507 34.7669 22.2351 34.6255 21.8562C34.5594 21.7094 34.5594 21.4891 34.4505 21.4163C34.2866 21.6847 34.0468 21.9176 33.9262 22.2475C33.7188 22.7729 33.6972 23.4208 33.6209 24.0931C33.5769 24.1055 33.5964 24.0931 33.5769 24.1178C33.228 24.0203 33.1076 23.6164 32.9767 23.2745C32.6494 22.4066 32.5946 21.0133 32.8784 20.0108C32.9547 19.7541 33.2825 18.9473 33.1516 18.703C33.0856 18.4706 32.8678 18.3364 32.7475 18.1528C32.6056 17.9205 32.4532 17.6274 32.3548 17.3707C32.093 16.6858 31.9621 15.9283 31.6781 15.2436C31.5467 14.9259 31.3177 14.5957 31.132 14.3026C30.9245 13.9725 30.6958 13.7401 30.5319 13.3492C30.4773 13.215 30.401 12.9947 30.4883 12.8479C30.5098 12.7501 30.5539 12.7136 30.6407 12.689C30.7826 12.5547 31.1868 12.7257 31.3287 12.7985C31.7324 12.9821 32.0708 13.153 32.4091 13.4095C32.562 13.5317 32.7259 13.764 32.9224 13.8253H33.1519C33.5013 13.9108 33.8939 13.85 34.221 13.9596C34.7996 14.1678 35.3235 14.473 35.7932 14.8034C37.223 15.8179 38.4022 17.2603 39.1988 18.984C39.3297 19.2651 39.3843 19.5218 39.5046 19.8152C39.7341 20.4144 40.0179 21.0253 40.2467 21.6124C40.4762 22.1869 40.6944 22.774 41.0217 23.2507C41.1857 23.5074 41.8404 23.6417 42.1349 23.7762C42.3534 23.8858 42.6915 23.9844 42.8885 24.1186C43.2594 24.3753 43.6305 24.6687 43.9796 24.9498C44.1541 25.0961 44.7001 25.4019 44.7327 25.6457L44.7339 25.6446ZM33.6021 15.0226C33.4512 15.0211 33.3009 15.0416 33.1548 15.0837V15.1083H33.1764C33.2637 15.3039 33.4166 15.4384 33.5257 15.6097L33.777 16.1965L33.7985 16.1718C33.9514 16.0496 34.028 15.854 34.028 15.5609C33.9624 15.4754 33.9517 15.3897 33.8971 15.3042C33.8315 15.182 33.6896 15.1206 33.6021 15.0231V15.0226Z" fill="#00678C"/>
<path fill-rule="evenodd" clip-rule="evenodd" d="M21.9417 34.7755H26.046C26.5263 34.7755 26.985 34.6659 27.3559 34.4701C27.978 34.1523 28.2729 33.7249 28.2729 33.1624V31.9891C28.2729 31.537 27.9345 31.1088 27.258 30.8157C26.9087 30.6691 26.4719 30.5834 26.0462 30.5834H24.3214C23.7428 30.5834 23.47 30.3875 23.3934 29.9601C23.3827 29.9113 23.3827 29.8623 23.3827 29.8135V29.0922C23.3827 29.0552 23.3827 29.0067 23.3934 28.958C23.4698 28.6278 23.6227 28.5421 24.1274 28.4813H28.3299V27.4175H24.3346C23.756 27.4175 23.4504 27.4545 23.1774 27.5523C22.3368 27.8454 21.9656 28.31 21.9656 29.1286V30.0582C21.9656 30.7787 22.6861 31.3905 23.9087 31.537C24.0396 31.5494 24.1815 31.5494 24.3234 31.5494H25.7972C25.8517 31.5494 25.9061 31.5494 25.9496 31.5617C26.3973 31.6105 26.5938 31.6959 26.7247 31.8789C26.812 31.9767 26.834 32.0625 26.834 32.1726V33.1014C26.834 33.2109 26.7685 33.3583 26.6376 33.4802C26.5067 33.6022 26.2987 33.6879 26.0259 33.7002C25.9714 33.7002 25.9391 33.7126 25.884 33.7126H21.9417V34.7755ZM37.158 32.9301C37.158 34.0178 37.892 34.6287 39.3526 34.7514C39.4945 34.7637 39.6254 34.7755 39.7673 34.7755H43.4787V33.7126H39.7347C38.9046 33.7126 38.5883 33.4802 38.5883 32.9181V27.4175H37.1553V32.9304L37.158 32.9301ZM29.1786 32.9786V29.1897C29.1786 28.224 29.7897 27.6369 30.98 27.4539C31.1109 27.4416 31.2418 27.4293 31.3616 27.4293H34.0685C34.2104 27.4293 34.3308 27.4416 34.4727 27.4539C35.6624 27.6369 36.2626 28.2237 36.2626 29.1897V32.9786C36.2626 33.7608 36.0118 34.1767 35.422 34.458L36.8189 35.8755H35.1709L34.0357 34.7268L32.8893 34.8002H31.3612C31.0811 34.7986 30.8024 34.7577 30.5315 34.6783C29.6263 34.3966 29.1786 33.8591 29.1786 32.9786V32.9786ZM30.7175 32.8937C30.7175 32.9425 30.7419 32.9909 30.7505 33.0526C30.8268 33.4923 31.1977 33.7369 31.7653 33.7369H33.0537L31.8749 32.5389H33.5229L34.5598 33.5904C34.7567 33.4679 34.8766 33.2967 34.9202 33.0767C34.9312 33.0279 34.9312 32.9671 34.9312 32.9178V29.2873C34.9312 29.2385 34.9312 29.19 34.9202 29.1407C34.8438 28.7254 34.4729 28.4933 33.9161 28.4933H31.7656C31.1324 28.4933 30.7177 28.7988 30.7177 29.2873L30.7175 32.8937Z" fill="#CE8B2C"/>
</svg>
