<svg width="50" height="30" viewBox="0 0 50 30" fill="none" xmlns="http://www.w3.org/2000/svg">
<path fill-rule="evenodd" clip-rule="evenodd" d="M0.00284463 27.3305H1.65285V19.7768L4.2297 26.3627C4.52158 27.1543 4.94091 27.4476 5.75283 27.4476C6.56475 27.4476 6.95904 27.154 7.26059 26.3627L9.82464 19.7768V27.3305H11.4875V19.7768C11.4875 19.0436 11.2334 18.6909 10.7003 18.5002C9.44372 18.0603 8.60592 18.4417 8.22528 19.424L5.69963 25.9366L3.26246 19.424C2.89434 18.4417 2.04373 18.0603 0.774649 18.5002C0.254044 18.6909 0.000284327 19.0433 0.000284327 19.7768L0 27.3305H0.00284463ZM12.8609 21.1848H14.5237V25.336C14.5112 25.5704 14.5872 26.0987 15.491 26.1128C15.9604 26.1276 19.0704 26.1128 19.0954 26.1128V21.1552H20.7582V27.9466C20.7582 29.6186 18.966 29.9849 18.1307 30H12.9019V28.7244H18.1441C19.2103 28.5923 19.0834 27.9765 19.0834 27.771V27.272H15.5672C13.9297 27.2572 12.876 26.4212 12.8638 25.4678V21.1841L12.8609 21.1848ZM48.5278 16.3735C47.5128 16.3439 46.7253 16.4616 46.0653 16.7844C45.8753 16.8732 45.5703 16.8732 45.5453 17.1513C45.6468 17.268 45.6591 17.459 45.7481 17.6208C45.9003 17.9144 46.1671 18.3099 46.4081 18.515C46.675 18.7501 46.9415 18.9845 47.2203 19.1899C47.7153 19.5417 48.2738 19.7472 48.756 20.0993C49.0353 20.3047 49.3144 20.5687 49.5938 20.789C49.736 20.9064 49.8222 21.0974 50 21.1703V21.126C49.9112 20.9945 49.8856 20.8038 49.7972 20.6565C49.67 20.5102 49.5431 20.3777 49.416 20.2314C49.0481 19.6594 48.5909 19.1603 48.0959 18.7501C47.6897 18.4272 46.8015 17.9873 46.6365 17.4449L46.6115 17.4153C46.8903 17.3857 47.2203 17.2684 47.4872 17.1803C47.919 17.0488 48.3122 17.0777 48.756 16.9459C48.9594 16.8867 49.1622 16.8137 49.3656 16.7404V16.6089C49.1372 16.3449 48.9722 15.9928 48.7312 15.7436C48.084 15.0983 47.3728 14.4674 46.6365 13.9394C46.2431 13.6462 45.7353 13.4552 45.3165 13.2063C45.1638 13.1182 44.9103 13.0741 44.8215 12.9275C44.5925 12.6053 44.4659 12.1796 44.3009 11.7979C43.9331 10.9911 43.5775 10.0966 43.2603 9.2458C43.0319 8.67376 42.8919 8.10173 42.6131 7.57376C41.3056 5.08016 39.8838 3.56954 37.7006 2.08785C37.2312 1.77981 36.6728 1.64732 36.0791 1.48623L35.1272 1.42705C34.9238 1.32448 34.7209 1.0457 34.5431 0.91354C33.8197 0.385562 31.9538 -0.7585 31.4204 0.752451C31.0776 1.70584 31.9282 2.64443 32.2169 3.12868C32.4331 3.46598 32.7119 3.84734 32.8647 4.22869C32.95 4.47788 32.9785 4.7422 33.0675 5.00619C33.2704 5.65153 33.461 6.37052 33.7275 6.97214C33.8698 7.28018 34.0191 7.60334 34.1969 7.8818C34.2985 8.04289 34.4763 8.11653 34.5141 8.38052C34.3363 8.67409 34.3241 9.11364 34.2225 9.48085C33.7654 11.1384 33.9432 13.1918 34.5904 14.4089C34.7938 14.7754 35.2731 15.5825 35.9235 15.2741C36.4947 15.0102 36.3673 14.1741 36.5323 13.4407C36.5707 13.2648 36.5451 13.1474 36.621 13.0297V13.0593L37.1416 14.2767C37.5351 14.9954 38.2207 15.7436 38.7916 16.2427C39.096 16.5066 39.3373 16.9616 39.7179 17.1227V17.0783H39.6929C39.6166 16.9468 39.5023 16.8877 39.4007 16.7851C39.1723 16.5211 38.9185 16.1983 38.7407 15.905C38.2079 15.0838 37.7385 14.1741 37.3194 13.2355C37.116 12.7809 36.9382 12.2822 36.7738 11.8275C36.697 11.6513 36.697 11.387 36.5704 11.2995C36.3798 11.6217 36.101 11.9011 35.9607 12.297C35.7195 12.9275 35.6944 13.705 35.6057 14.5118C35.5545 14.5266 35.5772 14.5118 35.5545 14.5414C35.1488 14.4243 35.0088 13.9397 34.8566 13.5295C34.476 12.488 34.4123 10.8159 34.7423 9.61301C34.831 9.30497 35.2123 8.33679 35.0601 8.04354C34.9832 7.76476 34.73 7.60367 34.5901 7.38341C34.4251 7.10462 34.2478 6.75286 34.1335 6.44482C33.8291 5.62293 33.6769 4.71393 33.3466 3.89238C33.1938 3.51102 32.9276 3.11487 32.7116 2.76311C32.4704 2.36696 32.2044 2.08818 32.0138 1.61905C31.9504 1.45796 31.8616 1.19364 31.9632 1.01743C31.9882 0.900061 32.0394 0.856337 32.1404 0.826749C32.3054 0.66566 32.7754 0.870802 32.9404 0.95825C33.4098 1.17851 33.8032 1.38366 34.1966 1.69137C34.3744 1.838 34.5651 2.11678 34.7935 2.19042H35.0603C35.4666 2.29299 35.9232 2.22001 36.3035 2.35151C36.9763 2.60136 37.5854 2.96759 38.1316 3.36407C39.7941 4.58144 41.1654 6.31233 42.0916 8.38084C42.2438 8.71815 42.3073 9.02619 42.4472 9.37828C42.7141 10.0973 43.0441 10.8304 43.3101 11.5349C43.5769 12.2243 43.8307 12.9288 44.2113 13.5009C44.4019 13.8089 45.1632 13.97 45.5057 14.1314C45.7598 14.2629 46.1529 14.3813 46.3819 14.5423C46.8132 14.8504 47.2448 15.2025 47.6507 15.5398C47.8536 15.7153 48.4885 16.0822 48.5264 16.3748L48.5278 16.3735ZM35.5838 3.62707C35.4084 3.62528 35.2336 3.64992 35.0637 3.70038V3.72997H35.0888C35.1903 3.9647 35.3681 4.12612 35.495 4.33159L35.7872 5.03578L35.8122 5.00619C35.99 4.85957 36.0791 4.62484 36.0791 4.27307C36.0028 4.1705 35.9903 4.0676 35.9269 3.96503C35.8506 3.8184 35.6856 3.74476 35.5838 3.62773V3.62707Z" fill="#00678C"/>
<path fill-rule="evenodd" clip-rule="evenodd" d="M22.0252 27.3306H26.7977C27.3561 27.3306 27.8896 27.1991 28.3208 26.9641C29.0443 26.5827 29.3871 26.0699 29.3871 25.3949V23.9869C29.3871 23.4444 28.9936 22.9306 28.207 22.5788C27.8008 22.403 27.293 22.3001 26.798 22.3001H24.7924C24.1196 22.3001 23.8024 22.065 23.7133 21.5521C23.7008 21.4936 23.7008 21.4348 23.7008 21.3763V20.5106C23.7008 20.4663 23.7008 20.4081 23.7133 20.3496C23.8021 19.9534 23.9799 19.8505 24.5668 19.7775H29.4534V18.501H24.8077C24.1349 18.501 23.7796 18.5454 23.4621 18.6627C22.4846 19.0145 22.0531 19.5721 22.0531 20.5544V21.6698C22.0531 22.5345 22.8909 23.2686 24.3125 23.4444C24.4647 23.4592 24.6297 23.4592 24.7947 23.4592H26.5084C26.5718 23.4592 26.635 23.4592 26.6856 23.474C27.2062 23.5325 27.4347 23.6351 27.5869 23.8547C27.6884 23.9721 27.714 24.075 27.714 24.2071V25.3216C27.714 25.4531 27.6378 25.63 27.4856 25.7763C27.3334 25.9226 27.0916 26.0255 26.7744 26.0403C26.7109 26.0403 26.6734 26.0551 26.6094 26.0551H22.0252V27.3306ZM39.7187 25.1162C39.7187 26.4213 40.5721 27.1544 42.2705 27.3017C42.4355 27.3165 42.5877 27.3306 42.7527 27.3306H47.0683V26.0551H42.7149C41.7496 26.0551 41.3818 25.7763 41.3818 25.1017V18.501H39.7155V25.1165L39.7187 25.1162ZM30.4402 25.1743V20.6277C30.4402 19.4688 31.1509 18.7643 32.5349 18.5447C32.6871 18.5299 32.8393 18.5151 32.9787 18.5151H36.1262C36.2912 18.5151 36.4312 18.5299 36.5962 18.5447C37.9796 18.7643 38.6775 19.4685 38.6775 20.6277V25.1743C38.6775 26.1129 38.3859 26.612 37.7 26.9496L39.3244 28.6506H37.4081L36.0881 27.2721L34.755 27.3602H32.9781C32.6525 27.3584 32.3284 27.3092 32.0134 27.2139C30.9608 26.876 30.4402 26.231 30.4402 25.1743V25.1743ZM32.2296 25.0724C32.2296 25.1309 32.2581 25.1891 32.268 25.2631C32.3568 25.7908 32.7881 26.0843 33.4481 26.0843H34.9462L33.5755 24.6467H35.4918L36.6975 25.9084C36.9265 25.7615 37.0659 25.556 37.1165 25.292C37.1293 25.2335 37.1293 25.1605 37.1293 25.1014V20.7447C37.1293 20.6862 37.1293 20.628 37.1165 20.5688C37.0277 20.0704 36.5965 19.792 35.949 19.792H33.4484C32.7121 19.792 32.2299 20.1586 32.2299 20.7447L32.2296 25.0724Z" fill="#CE8B2C"/>
</svg>
