<svg width="50" height="50" viewBox="0 0 50 50" fill="none" xmlns="http://www.w3.org/2000/svg">
<path d="M24.9582 29.1501C27.2686 29.1501 29.1416 27.2772 29.1416 24.9668C29.1416 22.6564 27.2686 20.7834 24.9582 20.7834C22.6478 20.7834 20.7749 22.6564 20.7749 24.9668C20.7749 27.2772 22.6478 29.1501 24.9582 29.1501Z" fill="#00D8FF"/>
<path d="M24.9583 34.5499C19.0833 34.5499 13.95 33.8582 10.1083 32.5416C7.61663 31.6916 5.49996 30.5582 3.99163 29.2666C2.39163 27.8999 1.54163 26.4082 1.54163 24.9666C1.54163 22.1999 4.57496 19.4916 9.66663 17.7249C13.8333 16.2749 19.2666 15.4666 24.95 15.4666C30.5333 15.4666 35.8916 16.2499 40.0333 17.6832C42.4583 18.5166 44.5 19.5999 45.95 20.7999C47.525 22.1166 48.3583 23.5582 48.3583 24.9666C48.3583 27.8416 44.9666 30.7499 39.5 32.5582C35.6333 33.8416 30.4666 34.5499 24.9583 34.5499ZM24.9583 17.4666C19.5666 17.4666 14.2333 18.2499 10.3333 19.6082C5.64996 21.2416 3.54996 23.4749 3.54996 24.9666C3.54996 26.5166 5.80829 28.9582 10.7583 30.6499C14.3916 31.8916 19.3083 32.5499 24.9583 32.5499C30.2583 32.5499 35.2 31.8832 38.875 30.6582C44.0166 28.9499 46.3666 26.5082 46.3666 24.9666C46.3666 24.1749 45.7666 23.2416 44.675 22.3332C43.4166 21.2832 41.5833 20.3249 39.3916 19.5666C35.45 18.2166 30.325 17.4666 24.9583 17.4666Z" fill="#00D8FF"/>
<path d="M15.4666 45.8166C14.6166 45.8166 13.8666 45.6333 13.2333 45.2667C10.8416 43.8833 10.0083 39.9 11.0166 34.6083C11.8416 30.2666 13.8583 25.1666 16.7 20.2416C19.4916 15.4083 22.8416 11.1583 26.15 8.28329C28.0833 6.59996 30.0416 5.36662 31.8083 4.71662C33.7333 4.00829 35.4 4.00829 36.6166 4.70829C39.1083 6.14162 39.9333 10.5416 38.7666 16.175C37.9416 20.175 35.975 25 33.225 29.775C30.2916 34.8583 27.125 38.9583 24.0666 41.6333C22.0833 43.3666 20.0416 44.6333 18.175 45.2917C17.2 45.6417 16.2833 45.8166 15.4666 45.8166ZM17.5583 20.7416L18.425 21.2416C15.7333 25.9083 13.7416 30.9166 12.975 34.9833C12.05 39.8583 12.9416 42.7917 14.225 43.5333C14.5416 43.7167 14.9583 43.8166 15.4666 43.8166C17.125 43.8166 19.7333 42.7666 22.75 40.1333C25.6416 37.6083 28.6666 33.675 31.4916 28.7833C34.1416 24.1916 36.025 19.575 36.8083 15.7833C37.9 10.475 36.9583 7.22496 35.6166 6.44996C34.9333 6.05829 33.825 6.10829 32.4916 6.59996C30.95 7.16662 29.2083 8.27496 27.4583 9.79996C24.3166 12.5333 21.1083 16.6 18.425 21.25L17.5583 20.7416Z" fill="#00D8FF"/>
<path d="M34.4499 45.8416C32.1832 45.8416 29.3083 44.475 26.3083 41.8916C22.9583 39.0083 19.5499 34.7166 16.6999 29.7916C13.8999 24.9583 11.8999 19.9333 11.0583 15.6249C10.5666 13.1083 10.4749 10.7999 10.7916 8.94161C11.1416 6.9166 11.9666 5.47494 13.1916 4.7666C15.6749 3.32494 19.8999 4.80827 24.1999 8.63327C27.2499 11.3416 30.4499 15.4583 33.2082 20.2249C36.1499 25.3083 38.1249 30.1 38.9082 34.0833C39.4166 36.6666 39.4999 39.0666 39.1416 41.0166C38.7582 43.0916 37.8916 44.5666 36.6416 45.2916C36.0166 45.6583 35.2749 45.8416 34.4499 45.8416ZM18.4333 28.7916C21.1333 33.4583 24.4833 37.6833 27.6166 40.375C31.3749 43.6083 34.3582 44.3083 35.6499 43.5583C36.9916 42.7833 37.9749 39.6083 36.9582 34.475C36.2082 30.7083 34.3166 26.1249 31.4832 21.2333C28.8249 16.6416 25.7666 12.6999 22.8749 10.1333C18.8249 6.53327 15.5416 5.72494 14.1999 6.49994C13.5166 6.8916 13.0083 7.88327 12.7666 9.28327C12.4916 10.8999 12.5749 12.9666 13.0249 15.2416C13.8249 19.3333 15.7416 24.1416 18.4333 28.7916Z" fill="#00D8FF"/>
</svg>
