<svg width="30" height="30" viewBox="0 0 30 30" fill="none" xmlns="http://www.w3.org/2000/svg">
<path d="M29.9098 8.81568C29.8368 7.21899 29.5832 6.12859 29.2124 5.1746C28.8359 4.17369 28.2454 3.26708 27.4823 2.51772C26.7332 1.75462 25.8263 1.16387 24.8254 0.787131C23.8712 0.416568 22.7811 0.163194 21.1844 0.0906379C19.5847 0.0173952 19.0736 0 15 0C10.9264 0 10.4153 0.0173952 8.81561 0.0901801C7.21893 0.163194 6.12877 0.416797 5.17456 0.787588C4.17366 1.1641 3.26706 1.75462 2.5177 2.51772C1.75461 3.26686 1.16386 4.17346 0.787125 5.17437C0.416565 6.12859 0.163193 7.21899 0.0906372 8.81545C0.017395 10.4153 0 10.9262 0 14.9999C0 19.0738 0.017395 19.5849 0.0906372 21.1845C0.163422 22.781 0.417023 23.8714 0.787811 24.8256C1.16432 25.8263 1.75484 26.7331 2.51793 27.4823C3.26706 28.2454 4.17389 28.8359 5.17479 29.2124C6.12877 29.5834 7.21916 29.8368 8.81584 29.9098C10.4157 29.9828 10.9266 30 15.0002 30C19.0739 30 19.585 29.9828 21.1846 29.9098C22.7813 29.8368 23.8715 29.5834 24.8257 29.2124C26.8405 28.4333 28.4333 26.8405 29.2124 24.8256C29.5834 23.8714 29.8368 22.781 29.9098 21.1845C29.9826 19.5847 30 19.0738 30 15.0001C30 10.9262 29.9826 10.4153 29.9098 8.81568V8.81568ZM27.2097 21.0616C27.1431 22.5242 26.8987 23.3184 26.6933 23.8469C26.1887 25.1552 25.1548 26.1891 23.8465 26.6938C23.318 26.8991 22.5238 27.1435 21.0612 27.2101C19.4799 27.2825 19.0054 27.2976 15 27.2976C10.9943 27.2976 10.5201 27.2825 8.93852 27.2101C7.4762 27.1435 6.68198 26.8991 6.15326 26.6938C5.50186 26.4532 4.91249 26.0698 4.42863 25.5716C3.93036 25.0877 3.54698 24.4986 3.30643 23.8469C3.10112 23.3184 2.85667 22.5242 2.79007 21.0616C2.71797 19.4801 2.70264 19.0056 2.70264 15.0003C2.70264 10.9949 2.71797 10.5206 2.79007 8.93882C2.8569 7.47625 3.10112 6.68203 3.30643 6.15354C3.54698 5.5019 3.93059 4.91253 4.42863 4.42867C4.91249 3.93039 5.50186 3.54701 6.15349 3.30668C6.68198 3.10114 7.4762 2.85692 8.93875 2.79009C10.5203 2.71799 10.9948 2.70266 15 2.70266H14.9998C19.005 2.70266 19.4794 2.71799 21.0612 2.79032C22.5238 2.85692 23.3178 3.10137 23.8465 3.30668C24.4979 3.54724 25.0873 3.93062 25.5711 4.42867C26.0694 4.91253 26.4528 5.5019 26.6931 6.15354C26.8987 6.68203 27.1431 7.47625 27.2097 8.93882C27.2818 10.5204 27.2971 10.9949 27.2971 15.0001C27.2971 19.0056 27.282 19.4798 27.2097 21.0616Z" fill="url(#paint0_linear)"/>
<path d="M14.9999 7.29736C10.7459 7.29736 7.29736 10.7462 7.29736 15.0002C7.29736 19.2542 10.7459 22.7028 14.9999 22.7028C19.2542 22.7028 22.7027 19.2542 22.7027 15.0002C22.7027 10.7462 19.2542 7.29736 14.9999 7.29736V7.29736ZM14.9999 20.0002C12.2387 19.9999 10 17.7615 10.0002 15C10.0002 12.2387 12.2387 10 15.0002 10C17.7616 10.0002 20.0001 12.2387 20.0001 15C20.0001 17.7615 17.7614 20.0002 14.9999 20.0002V20.0002Z" fill="url(#paint1_linear)"/>
<path d="M24.8069 6.99304C24.8069 7.98708 24.001 8.79298 23.0069 8.79298C22.0127 8.79298 21.2068 7.98708 21.2068 6.99304C21.2068 5.99877 22.0127 5.19287 23.0069 5.19287C24.001 5.19287 24.8069 5.99877 24.8069 6.99304V6.99304Z" fill="url(#paint2_linear)"/>
<defs>
<linearGradient id="paint0_linear" x1="2.51755" y1="27.4824" x2="27.4826" y2="2.51752" gradientUnits="userSpaceOnUse">
<stop stop-color="#FFD600"/>
<stop offset="0.5" stop-color="#FF0100"/>
<stop offset="1" stop-color="#D800B9"/>
</linearGradient>
<linearGradient id="paint1_linear" x1="9.55345" y1="20.4468" x2="20.4468" y2="9.55355" gradientUnits="userSpaceOnUse">
<stop stop-color="#FF6400"/>
<stop offset="0.5" stop-color="#FF0100"/>
<stop offset="1" stop-color="#FD0056"/>
</linearGradient>
<linearGradient id="paint2_linear" x1="21.7341" y1="8.26571" x2="24.2796" y2="5.72018" gradientUnits="userSpaceOnUse">
<stop stop-color="#F30072"/>
<stop offset="1" stop-color="#E50097"/>
</linearGradient>
</defs>
</svg>
