<svg width="50" height="50" viewBox="0 0 50 50" fill="none" xmlns="http://www.w3.org/2000/svg">
<path d="M1.4289 17.8736C1.4289 17.8736 0.245294 17.0048 1.66562 15.8447L4.97478 12.8314C4.97478 12.8314 5.92166 11.817 6.92279 12.7009L37.4598 36.2445V47.5342C37.4598 47.5342 37.445 49.307 35.2109 49.1111L1.4289 17.8736Z" fill="#2489CA"/>
<path d="M9.30004 25.1508L1.42905 32.4378C1.42905 32.4378 0.620248 33.0504 1.42905 34.1452L5.08344 37.5301C5.08344 37.5301 5.95141 38.4793 7.23366 37.3995L15.5781 30.9562L9.30004 25.1508Z" fill="#1070B3"/>
<path d="M23.1185 25.211L37.5535 13.9866L37.4598 2.75716C37.4598 2.75716 36.8434 0.306366 34.7869 1.58198L15.5779 19.3854L23.1185 25.211Z" fill="#0877B9"/>
<path d="M35.211 49.1262C36.0494 50 37.0653 49.7138 37.0653 49.7138L48.3145 44.0689C49.7545 43.0695 49.5523 41.8291 49.5523 41.8291V8.12076C49.5523 6.63924 48.0629 6.12699 48.0629 6.12699L38.313 1.34093C36.1825 2.94938e-05 34.7869 1.58199 34.7869 1.58199C34.7869 1.58199 36.582 0.266201 37.4598 2.75716V47.3283C37.4598 47.6346 37.3957 47.9359 37.2675 48.2071C37.0111 48.7345 36.4538 49.2266 35.1173 49.0207L35.211 49.1262Z" fill="#3C99D4"/>
</svg>
