<svg width="50" height="50" viewBox="0 0 50 50" fill="none" xmlns="http://www.w3.org/2000/svg">
<path d="M49.8764 24.9381C49.8764 38.7103 38.7113 49.8757 24.9383 49.8757C11.165 49.8757 0 38.7103 0 24.9381C0 11.1651 11.1651 0 24.9383 0C38.7114 0 49.8764 11.1651 49.8764 24.9381Z" fill="#DD4814"/>
<path d="M7.98108 21.6081C6.14135 21.6081 4.65088 23.0987 4.65088 24.9383C4.65088 26.777 6.14135 28.2674 7.98108 28.2674C9.81979 28.2674 11.3103 26.777 11.3103 24.9383C11.3103 23.0987 9.81979 21.6081 7.98108 21.6081ZM31.7535 36.7406C30.161 37.6604 29.615 39.6956 30.5349 41.2872C31.4537 42.8798 33.4889 43.4256 35.0814 42.5059C36.6738 41.5871 37.2198 39.5519 36.3 37.9592C35.3812 36.3677 33.3449 35.8218 31.7535 36.7406ZM15.2132 24.9383C15.2132 21.6479 16.8475 18.741 19.3482 16.9808L16.9141 12.9038C14.001 14.851 11.8336 17.8265 10.9328 21.3114C11.9839 22.1691 12.6566 23.4746 12.6566 24.9381C12.6566 26.4007 11.9839 27.7063 10.9328 28.5639C11.8324 32.0498 13.9999 35.0255 16.9141 36.9727L19.3482 32.8947C16.8475 31.1355 15.2132 28.2287 15.2132 24.9383ZM24.9383 15.2122C30.0189 15.2122 34.1872 19.1076 34.6248 24.0755L39.3691 24.0056C39.1356 20.338 37.5334 17.0454 35.0716 14.6243C33.8056 15.1026 32.3433 15.0295 31.0793 14.3009C29.8132 13.5702 29.0194 12.3377 28.8023 10.9997C27.5718 10.6601 26.2768 10.4742 24.938 10.4742C22.6364 10.4742 20.4603 11.0148 18.5282 11.9711L20.8416 16.1169C22.0862 15.5377 23.4746 15.2122 24.9383 15.2122ZM24.9383 34.6633C23.4746 34.6633 22.0862 34.3377 20.8418 33.7586L18.5283 37.9042C20.4604 38.8617 22.6365 39.4025 24.9383 39.4025C26.2771 39.4025 27.5721 39.2164 28.8025 38.8758C29.0195 37.5378 29.8136 36.3064 31.0795 35.5745C32.3443 34.8447 33.8057 34.7729 35.0717 35.2512C37.5336 32.83 39.1358 29.5375 39.3692 25.8699L34.6238 25.8C34.1872 30.7692 30.0191 34.6633 24.9383 34.6633ZM31.7523 13.1339C33.3449 14.0535 35.3802 13.5088 36.299 11.9163C37.2188 10.3237 36.674 8.28841 35.0814 7.36846C33.4889 6.4497 31.4537 6.99559 30.5336 8.58811C29.615 10.1798 30.1608 12.2151 31.7523 13.1339Z" fill="white"/>
</svg>
