<svg width="114" height="114" viewBox="0 0 114 114" fill="none" xmlns="http://www.w3.org/2000/svg">
<g clip-path="url(#clip0_126_83)">
<path d="M31.4096 31.0365L24.0415 23.6684L24.0727 76.9278L24.1608 79.4171C24.1974 80.5882 24.4147 81.9099 24.7772 83.2797L83.1594 103.867L97.7532 97.4006L97.7585 97.3828L31.4096 31.0365Z" fill="#00D2B8"/>
<path d="M24.7772 83.2797L24.7807 83.2833C24.7772 83.2592 24.7647 83.2325 24.7647 83.2076C24.7647 83.2325 24.7683 83.2557 24.7772 83.2797ZM97.7532 97.4006L83.1594 103.867L24.7807 83.2833C25.8958 87.5618 28.3646 92.3712 31.0214 95.0012L50.0736 113.945L92.4362 114L97.7586 97.3828L97.7532 97.4006Z" fill="#55DDCA"/>
<path d="M1.35107 57.9423C-0.535278 59.956 0.401659 64.1099 3.43869 67.1701L16.5389 80.3789L24.7772 83.2797C24.4147 81.9099 24.1974 80.5882 24.1609 79.4171L24.0727 76.9278L24.0415 23.6684L1.35107 57.9423Z" fill="#0081C6"/>
<path d="M83.6386 24.3524C82.2688 24.0024 80.9551 23.786 79.7643 23.7486L77.1334 23.6577L24.0415 23.6648L97.7657 97.3828H97.7719L104.247 82.7747L83.6386 24.3524Z" fill="#0079B3"/>
<path d="M83.5718 24.3381C83.6003 24.3444 83.6225 24.3524 83.6412 24.3551L83.6386 24.3524C83.6225 24.3444 83.6003 24.3444 83.5718 24.3381ZM95.3494 30.6072C92.674 27.9095 87.9278 25.4577 83.6412 24.3551L104.247 82.7747L97.7719 97.3827H97.7657L113.589 92.3293L113.622 48.9488L95.3494 30.6072Z" fill="#00A4E4"/>
<path d="M80.7521 16.164L67.5468 3.05575C64.4928 0.0303003 60.3371 -0.91109 58.3288 0.96991L24.0415 23.6648L77.1334 23.6577L79.7643 23.7485C80.9551 23.7859 82.2688 24.0024 83.6386 24.3524L80.7521 16.164Z" fill="#00D2B8"/>
</g>
<defs>
<clipPath id="clip0_126_83">
<rect width="114" height="114" fill="white"/>
</clipPath>
</defs>
</svg>
