<svg width="2793" height="1375" viewBox="0 0 2793 1375" fill="none" xmlns="http://www.w3.org/2000/svg">
<path d="M1628.63 794.905C1628.62 775.814 1624.88 756.965 1617.7 739.723C1610.51 722.48 1600.05 707.277 1587.07 695.214C1574.09 683.151 1558.92 674.53 1542.66 669.976C1526.39 665.423 1509.45 665.05 1493.04 668.886C1476.64 672.722 1461.19 680.669 1447.81 692.153C1434.44 703.637 1423.47 718.37 1415.7 735.283C1407.94 752.197 1403.57 770.868 1402.91 789.944C1402.26 809.021 1405.34 828.024 1411.92 845.577C1411.81 845.437 1411.69 845.301 1411.58 845.16C1416.6 858.485 1423.55 870.749 1432.15 881.435C1432.17 881.468 1432.2 881.499 1432.22 881.531C1432.92 882.393 1433.62 883.25 1434.33 884.09C1444.65 896.358 1457 906.167 1470.67 912.948C1484.34 919.729 1499.05 923.347 1513.96 923.591L1510.14 1159.82H1521.93L1519.55 1003.91L1536.59 993.675L1533.99 988.043L1519.44 996.78L1518.32 923.579C1547.8 922.809 1575.85 908.914 1596.47 884.867C1617.08 860.819 1628.63 828.53 1628.63 794.905Z" fill="#E6E6E6"/>
<path d="M1293.54 732.171C1293.53 709.798 1289.15 687.709 1280.73 667.502C1272.3 647.296 1260.04 629.478 1244.83 615.341C1229.62 601.204 1211.84 591.102 1192.79 585.765C1173.73 580.429 1153.87 579.993 1134.64 584.488C1115.42 588.983 1097.31 598.297 1081.64 611.755C1065.96 625.213 1053.11 642.478 1044 662.3C1034.9 682.121 1029.79 704.002 1029.02 726.358C1028.25 748.713 1031.86 770.983 1039.57 791.554C1039.44 791.39 1039.31 791.231 1039.18 791.066C1045.06 806.681 1053.2 821.054 1063.28 833.577C1063.31 833.615 1063.34 833.652 1063.37 833.689C1064.18 834.699 1065 835.704 1065.84 836.688C1077.93 851.065 1092.4 862.561 1108.42 870.508C1124.44 878.454 1141.69 882.694 1159.15 882.98L1154.68 1159.82H1168.5L1165.7 977.104L1185.68 965.111L1182.63 958.511L1165.57 968.751L1164.26 882.966C1198.82 882.063 1231.69 865.779 1255.85 837.598C1280.01 809.417 1293.54 771.576 1293.54 732.171Z" fill="#E6E6E6"/>
<path d="M913.503 673.163C913.491 647.704 908.511 622.566 898.925 599.571C889.339 576.577 875.386 556.301 858.077 540.214C840.769 524.126 820.538 512.63 798.851 506.557C777.163 500.484 754.563 499.988 732.686 505.103C710.81 510.218 690.205 520.817 672.366 536.132C654.526 551.448 639.898 571.095 629.542 593.651C619.185 616.208 613.36 641.108 612.487 666.548C611.615 691.988 615.717 717.331 624.497 740.74C624.35 740.554 624.198 740.372 624.051 740.185C630.739 757.955 640.01 774.31 651.474 788.562C651.508 788.605 651.543 788.647 651.577 788.689C652.502 789.839 653.433 790.982 654.384 792.102C668.143 808.463 684.616 821.545 702.846 830.588C721.076 839.631 740.701 844.455 760.58 844.781L755.492 1159.82H771.21L768.029 951.892L790.766 938.245L787.298 930.734L767.884 942.387L766.39 844.765C805.714 843.738 843.123 825.207 870.616 793.137C898.109 761.068 913.502 718.006 913.503 673.163Z" fill="#E6E6E6"/>
<path d="M1478.61 501.511C1532.99 501.511 1577.07 451.253 1577.07 389.256C1577.07 327.259 1532.99 277 1478.61 277C1424.23 277 1380.14 327.259 1380.14 389.256C1380.14 451.253 1424.23 501.511 1478.61 501.511Z" fill="#FF6584"/>
<path d="M893.231 746.946C1002.22 746.946 1090.57 646.218 1090.57 521.964C1090.57 397.71 1002.22 296.983 893.231 296.983C784.241 296.983 695.888 397.71 695.888 521.964C695.888 646.218 784.241 746.946 893.231 746.946Z" fill="#6C63FF"/>
<path opacity="0.2" d="M747.519 371.694C729.111 420.784 726.614 475.736 740.474 526.731C754.334 577.726 783.647 621.441 823.176 650.065C862.705 678.689 909.874 690.356 956.253 682.981C1002.63 675.606 1045.2 649.671 1076.35 609.808C1065.11 639.8 1048.28 666.646 1027.03 688.486C1005.78 710.326 980.619 726.638 953.291 736.293C925.964 745.947 897.122 748.712 868.763 744.397C840.405 740.082 813.209 728.789 789.059 711.301C764.909 693.814 744.383 670.55 728.902 643.12C713.421 615.691 703.357 584.753 699.406 552.449C695.454 520.145 697.711 487.248 706.018 456.037C714.326 424.826 728.487 396.047 747.519 371.694Z" fill="black"/>
<path d="M893.773 521.964H894.316L904.075 1159.82H883.473L893.773 521.964Z" fill="#3F3D56"/>
<path d="M925.16 859.559L892.538 879.139L897.085 888.983L929.706 869.403L925.16 859.559Z" fill="#3F3D56"/>
<path d="M1195.07 1153.86C1195.07 1153.86 1195.79 1136.85 1210.38 1138.83L1195.07 1153.86Z" fill="#3F3D56"/>
<path d="M1190.95 1137.67C1194.98 1137.67 1198.26 1133.94 1198.26 1129.34C1198.26 1124.74 1194.98 1121.02 1190.95 1121.02C1186.92 1121.02 1183.65 1124.74 1183.65 1129.34C1183.65 1133.94 1186.92 1137.67 1190.95 1137.67Z" fill="#6C63FF"/>
<path d="M1191.82 1143.37H1189.76V1159.82H1191.82V1143.37Z" fill="#3F3D56"/>
<path d="M688.828 1151.51C688.828 1151.51 689.54 1134.5 704.136 1136.48L688.828 1151.51Z" fill="#3F3D56"/>
<path d="M684.704 1135.32C688.738 1135.32 692.009 1131.59 692.009 1126.99C692.009 1122.39 688.738 1118.66 684.704 1118.66C680.669 1118.66 677.399 1122.39 677.399 1126.99C677.399 1131.59 680.669 1135.32 684.704 1135.32Z" fill="#6C63FF"/>
<path d="M685.577 1141.02H683.515V1157.47H685.577V1141.02Z" fill="#3F3D56"/>
<path d="M808.43 1152.68C808.43 1152.68 809.142 1135.67 823.738 1137.65L808.43 1152.68Z" fill="#3F3D56"/>
<path d="M804.306 1136.5C808.34 1136.5 811.611 1132.77 811.611 1128.17C811.611 1123.57 808.34 1119.84 804.306 1119.84C800.271 1119.84 797.001 1123.57 797.001 1128.17C797.001 1132.77 800.271 1136.5 804.306 1136.5Z" fill="#6C63FF"/>
<path d="M805.179 1142.19H803.117V1158.65H805.179V1142.19Z" fill="#3F3D56"/>
<path d="M1126.5 385.76L1141.16 372.399C1129.77 370.967 1125.1 378.045 1123.18 383.647C1114.29 379.437 1104.61 384.954 1104.61 384.954L1133.93 397.089C1132.45 392.585 1129.87 388.655 1126.5 385.76Z" fill="#3F3D56"/>
<path d="M1349.36 521.865L1364.01 508.503C1352.63 507.071 1347.95 514.149 1346.03 519.751C1337.14 515.541 1327.46 521.059 1327.46 521.059L1356.78 533.193C1355.3 528.689 1352.72 524.76 1349.36 521.865Z" fill="#3F3D56"/>
<path d="M1109 638.007L1123.65 624.646C1112.27 623.214 1107.59 630.292 1105.67 635.894C1096.78 631.684 1087.1 637.201 1087.1 637.201L1116.42 649.336C1114.94 644.832 1112.36 640.902 1109 638.007Z" fill="#3F3D56"/>
<path d="M1394.97 1160.03C1394.97 1160.03 1395.68 1143.02 1410.28 1145L1394.97 1160.03Z" fill="#3F3D56"/>
<path d="M1257.84 1160.03C1257.84 1160.03 1258.55 1143.02 1273.15 1145L1257.84 1160.03Z" fill="#3F3D56"/>
<path d="M757.78 1160.03C757.78 1160.03 758.492 1143.02 773.088 1145L757.78 1160.03Z" fill="#3F3D56"/>
<path d="M1456.83 1160.03C1456.83 1160.03 1457.55 1143.02 1472.14 1145L1456.83 1160.03Z" fill="#3F3D56"/>
<path d="M1427.96 1160.03C1427.96 1160.03 1428.68 1143.02 1443.27 1145L1427.96 1160.03Z" fill="#3F3D56"/>
<path d="M1368.41 1160.03C1368.41 1160.03 1367.7 1143.02 1353.1 1145L1368.41 1160.03Z" fill="#3F3D56"/>
<path d="M1131.27 1160.03C1131.27 1160.03 1130.56 1143.02 1115.96 1145L1131.27 1160.03Z" fill="#3F3D56"/>
<path d="M934.338 1160.03C934.338 1160.03 933.626 1143.02 919.03 1145L934.338 1160.03Z" fill="#3F3D56"/>
<path d="M725.035 1160.03C725.035 1160.03 724.323 1143.02 709.726 1145L725.035 1160.03Z" fill="#3F3D56"/>
<path d="M1518.94 1160.03C1518.94 1160.03 1518.23 1143.02 1503.64 1145L1518.94 1160.03Z" fill="#3F3D56"/>
<path d="M1430.27 1161.21C1430.27 1161.21 1429.56 1144.2 1414.97 1146.18L1430.27 1161.21Z" fill="#3F3D56"/>
<path d="M1629 1157.81H612V1160.42H1629V1157.81Z" fill="#3F3D56"/>
<path d="M2043.27 1166.35C2030.14 1164.15 2017.51 1162.29 2005.39 1160.75L2010.06 1150.78C2008.44 1150.2 2001.42 1155.97 2001.42 1155.97L2007.36 1127.12C1999.25 1128.28 1995.47 1157.7 1995.47 1157.7L1986.29 1147.89L1990.81 1158.99C1953.72 1154.83 1921.71 1153.53 1894.8 1153.83L1898.8 1145.3C1897.18 1144.72 1890.16 1150.49 1890.16 1150.49L1896.1 1121.64C1888 1122.8 1884.22 1152.22 1884.22 1152.22L1875.04 1142.41L1879.82 1154.17C1861.39 1154.74 1843 1156.32 1824.72 1158.91C1828.71 1145.65 1842.63 1132.89 1842.63 1132.89C1831.93 1136.45 1826.36 1142.25 1823.48 1147.62C1822.89 1120.36 1826.82 1093.22 1835.07 1067.42C1835.07 1067.42 1813.47 1119.34 1816.71 1153.95L1817.12 1160.1C1798.32 1163.23 1788.89 1166.35 1788.89 1166.35H2043.27Z" fill="#3F3D56"/>
<path d="M2092.78 1094.9C2091.5 1094.9 2090.25 1094.49 2089.18 1093.73C2088.12 1092.97 2087.28 1091.89 2086.79 1090.63C2086.3 1089.36 2086.18 1087.97 2086.43 1086.63C2086.68 1085.28 2087.29 1084.05 2088.2 1083.08C2089.11 1082.11 2090.26 1081.46 2091.52 1081.19C2092.77 1080.92 2094.08 1081.06 2095.26 1081.58C2096.45 1082.11 2097.46 1082.99 2098.17 1084.13C2098.88 1085.27 2099.26 1086.61 2099.26 1087.98C2099.26 1089.81 2098.58 1091.57 2097.36 1092.87C2096.15 1094.17 2094.5 1094.9 2092.78 1094.9ZM2092.78 1082.21C2091.71 1082.21 2090.67 1082.55 2089.78 1083.18C2088.89 1083.82 2088.2 1084.72 2087.79 1085.77C2087.38 1086.82 2087.28 1087.98 2087.48 1089.1C2087.69 1090.22 2088.21 1091.25 2088.96 1092.06C2089.72 1092.86 2090.68 1093.41 2091.73 1093.64C2092.78 1093.86 2093.86 1093.74 2094.85 1093.31C2095.84 1092.87 2096.68 1092.13 2097.27 1091.18C2097.87 1090.23 2098.18 1089.12 2098.18 1087.98C2098.18 1086.45 2097.61 1084.98 2096.6 1083.9C2095.59 1082.82 2094.21 1082.21 2092.78 1082.21Z" fill="#3F3D56"/>
<path d="M2144.54 1165.44H2133.87V1154.05H2144.54V1165.44ZM2134.69 1164.57H2143.72V1154.93H2134.69V1164.57Z" fill="#3F3D56"/>
<path d="M1783.57 1166.07L1776.3 1157.74L1784.1 1149.97L1791.37 1158.3L1783.57 1166.07ZM1777.46 1157.78L1783.61 1164.83L1790.21 1158.26L1784.05 1151.21L1777.46 1157.78Z" fill="#3F3D56"/>
<path d="M2171 1164.8H1707.7V1165.95H2171V1164.8Z" fill="#3F3D56"/>
<path d="M1994.92 908.159V946.046C1994.92 946.396 1994.79 946.732 1994.56 946.979C1994.33 947.227 1994.01 947.366 1993.68 947.367H1992.8V1144.74C1992.8 1150.2 1990.77 1155.44 1987.16 1159.3C1983.54 1163.16 1978.64 1165.33 1973.52 1165.33H1858.06C1855.53 1165.33 1853.02 1164.8 1850.68 1163.76C1848.34 1162.73 1846.22 1161.21 1844.43 1159.3C1842.64 1157.38 1841.22 1155.11 1840.25 1152.62C1839.28 1150.12 1838.78 1147.44 1838.78 1144.74V954.29H1838.15C1837.92 954.29 1837.69 954.192 1837.53 954.018C1837.37 953.844 1837.27 953.608 1837.27 953.361V931.798C1837.27 931.676 1837.29 931.554 1837.34 931.441C1837.38 931.327 1837.45 931.224 1837.53 931.137C1837.61 931.051 1837.71 930.982 1837.81 930.935C1837.92 930.888 1838.03 930.864 1838.15 930.864H1838.78V922.742H1838.14C1837.9 922.741 1837.67 922.637 1837.49 922.453C1837.32 922.269 1837.23 922.02 1837.23 921.761V900.493C1837.23 900.234 1837.33 899.987 1837.5 899.804C1837.67 899.622 1837.9 899.519 1838.14 899.518H1838.78V888.431H1838.13C1838.02 888.431 1837.92 888.409 1837.82 888.365C1837.72 888.322 1837.63 888.258 1837.56 888.178C1837.48 888.097 1837.42 888.002 1837.38 887.897C1837.34 887.792 1837.32 887.679 1837.32 887.566V875.959C1837.32 875.729 1837.4 875.508 1837.56 875.345C1837.71 875.182 1837.91 875.089 1838.13 875.088H1838.78V851.588C1838.78 846.128 1840.81 840.891 1844.43 837.03C1848.04 833.169 1852.95 831 1858.06 831H1973.52C1978.64 831 1983.54 833.169 1987.15 837.03C1990.77 840.89 1992.8 846.127 1992.8 851.588V906.838H1993.68C1994.01 906.839 1994.33 906.979 1994.56 907.226C1994.79 907.474 1994.92 907.809 1994.92 908.159Z" fill="#3F3D56"/>
<path d="M1921.35 841.56H1902.59C1901.83 841.56 1901.22 842.217 1901.22 843.027V844.759C1901.22 845.568 1901.83 846.225 1902.59 846.225H1921.35C1922.11 846.225 1922.73 845.568 1922.73 844.759V843.027C1922.73 842.217 1922.11 841.56 1921.35 841.56Z" fill="#E6E8EC"/>
<path d="M1928.46 846.538C1929.82 846.538 1930.93 845.354 1930.93 843.893C1930.93 842.431 1929.82 841.247 1928.46 841.247C1927.09 841.247 1925.98 842.431 1925.98 843.893C1925.98 845.354 1927.09 846.538 1928.46 846.538Z" fill="#E6E8EC"/>
<path d="M1983.57 855.661V1146.44C1983.57 1148.33 1983.19 1150.2 1982.45 1151.92C1981.7 1153.64 1980.62 1155.16 1979.27 1156.38C1977.06 1158.4 1974.25 1159.5 1971.34 1159.5H1860.81C1858.84 1159.51 1856.91 1159 1855.16 1158.03C1854.75 1157.81 1854.35 1157.56 1853.97 1157.28C1852.31 1156.09 1850.95 1154.47 1850.01 1152.58C1849.07 1150.69 1848.58 1148.58 1848.58 1146.44V855.661C1848.58 853.945 1848.89 852.246 1849.51 850.66C1850.12 849.075 1851.02 847.635 1852.16 846.422C1853.3 845.208 1854.65 844.246 1856.13 843.589C1857.61 842.933 1859.2 842.595 1860.81 842.595H1877.35V844.862C1877.35 847.715 1878.41 850.452 1880.3 852.469C1882.19 854.487 1884.75 855.62 1887.43 855.62H1943.64C1946.31 855.62 1948.87 854.487 1950.76 852.469C1952.65 850.452 1953.71 847.715 1953.71 844.862V842.595H1971.34C1972.94 842.594 1974.54 842.932 1976.02 843.588C1977.5 844.245 1978.85 845.207 1979.99 846.421C1981.13 847.634 1982.03 849.074 1982.64 850.66C1983.26 852.245 1983.57 853.945 1983.57 855.661Z" fill="#6C63FF"/>
<path opacity="0.3" d="M1983.57 1104.82V1146.44C1983.57 1148.33 1983.19 1150.2 1982.45 1151.92C1981.7 1153.64 1980.62 1155.16 1979.27 1156.38C1977.06 1158.4 1974.25 1159.5 1971.34 1159.5H1860.81C1858.84 1159.51 1856.91 1159 1855.16 1158.03C1854.75 1157.81 1854.35 1157.56 1853.97 1157.28C1852.31 1156.09 1850.95 1154.47 1850.01 1152.58C1849.07 1150.69 1848.58 1148.58 1848.58 1146.44V1104.84C1867.11 1087.04 1891.15 1077.2 1916.07 1077.19C1940.99 1077.19 1965.03 1087.03 1983.57 1104.82Z" fill="white"/>
<path opacity="0.3" d="M1977 1158.02C1975.25 1159 1973.31 1159.51 1971.34 1159.5H1860.81C1858.84 1159.51 1856.91 1159 1855.16 1158.03C1860.17 1145.18 1868.62 1134.2 1879.46 1126.47C1890.3 1118.74 1903.04 1114.62 1916.08 1114.62C1929.11 1114.62 1941.85 1118.74 1952.69 1126.46C1963.53 1134.19 1971.99 1145.17 1977 1158.02Z" fill="white"/>
<path opacity="0.3" d="M1952.94 1158.72C1951.89 1159.31 1950.71 1159.62 1949.52 1159.62H1882.64C1881.45 1159.62 1880.27 1159.31 1879.22 1158.73C1882.24 1150.95 1887.36 1144.3 1893.92 1139.63C1900.48 1134.95 1908.19 1132.46 1916.08 1132.46C1923.96 1132.45 1931.67 1134.95 1938.23 1139.62C1944.8 1144.3 1949.91 1150.94 1952.94 1158.72Z" fill="white"/>
<path d="M1944.19 955.167C1933.1 955.167 1920.94 952.912 1911.44 945.303C1898.21 934.709 1881.92 935.274 1870.58 937.614C1863.05 939.182 1855.74 941.783 1848.83 945.353L1848.33 944.33C1855.32 940.713 1862.72 938.077 1870.35 936.487C1881.91 934.097 1898.54 933.526 1912.09 944.38C1937.47 964.713 1982.92 946.451 1983.38 946.265L1983.76 947.342C1975.24 950.587 1966.43 952.879 1957.46 954.181C1953.06 954.822 1948.63 955.151 1944.19 955.167Z" fill="white"/>
<path opacity="0.3" d="M1848.57 944.841C1848.57 944.841 1885.84 935.201 1911.76 948.4C1937.69 961.6 1983.59 948.302 1983.59 948.302" fill="white"/>
<path opacity="0.3" d="M1883.75 959.817C1879.25 959.795 1874.76 959.316 1870.35 958.387C1862.72 956.797 1855.32 954.161 1848.33 950.544L1848.83 949.521C1855.74 953.091 1863.05 955.692 1870.58 957.26C1881.92 959.6 1898.21 960.165 1911.44 949.571C1924.98 938.727 1943.94 938.757 1957.46 940.693C1966.43 941.995 1975.24 944.287 1983.76 947.532L1983.38 948.609C1982.92 948.423 1937.47 930.16 1912.09 950.494C1903.2 957.612 1892.99 959.817 1883.75 959.817Z" fill="white"/>
<path opacity="0.3" d="M1883.94 955.171C1865.23 955.171 1848.62 948.004 1848.37 947.894L1848.78 946.827C1849.15 946.99 1886.1 962.921 1911.49 946.865C1937.32 930.528 1983.27 945.11 1983.73 945.26L1983.41 946.364C1982.96 946.216 1937.46 931.78 1912.04 947.857C1903.36 953.344 1893.38 955.171 1883.94 955.171Z" fill="white"/>
<path opacity="0.3" d="M1848.58 946.474C1848.58 946.474 1885.84 959.673 1911.76 946.474C1937.69 933.274 1983.57 945.227 1983.57 945.227" fill="white"/>
<path d="M1993.19 981.788V998.605C1993.19 998.605 1994.45 1017.44 2001.38 1026.86C2001.38 1026.86 2012.71 1044.01 2014.29 1040.31L2012.35 1028.13L2005.78 1021.48L2002.32 1000.62L2001.38 981.788H1993.19Z" fill="#FFB8B8"/>
<path d="M2062.78 1133.81V1146.26L2053.33 1149.96V1135.49L2062.78 1133.81Z" fill="#FFB8B8"/>
<path d="M2043.57 1132.47L2049.87 1147.6L2041.05 1151.64L2039.16 1136.84L2043.57 1132.47Z" fill="#FFB8B8"/>
<path d="M2059.32 1016.43C2059.32 1016.43 2071.91 1137.85 2067.19 1138.18C2062.47 1138.52 2053.33 1144.91 2053.33 1140.54C2053.33 1136.17 2046.09 1079.32 2046.09 1079.32L2039.16 1050.06V1090.42L2046.41 1136.17C2046.41 1136.17 2039.48 1145.92 2034.44 1140.2L2023.73 1095.47C2023.73 1095.47 2009.56 1027.53 2010.19 1022.15C2010.19 1022.15 2042.63 992.551 2059.32 1016.43Z" fill="#2F2E41"/>
<path d="M2056.8 1146.93C2056.8 1146.93 2059.32 1141.21 2064.99 1144.91L2069.71 1150.96C2069.71 1150.96 2081.89 1161.74 2073.25 1164.04C2064.34 1166.42 2059 1163.89 2059 1163.89C2059 1163.89 2057.43 1162.88 2056.17 1162.88C2054.91 1162.88 2052.07 1160.53 2052.07 1159.86C2052.07 1159.18 2053.02 1147.26 2053.02 1147.26C2053.38 1147.08 2053.78 1147.01 2054.17 1147.07C2054.56 1147.13 2054.93 1147.32 2055.22 1147.6C2056.17 1148.61 2056.8 1146.93 2056.8 1146.93Z" fill="#2F2E41"/>
<path d="M2038.22 1144.91C2038.22 1144.91 2044.2 1139.87 2047.04 1145.58C2047.04 1145.58 2048.82 1146.26 2049.03 1145.58C2049.24 1144.91 2050.82 1144.57 2050.82 1148.27C2050.82 1151.97 2052.53 1161.2 2050.95 1161.54C2049.38 1161.87 2047.8 1162.88 2048.12 1164.23C2048.43 1165.57 2046.41 1165.76 2039.16 1165.43C2031.92 1165.09 2031.61 1162.06 2031.61 1162.06C2031.61 1162.06 2031.61 1157.69 2033.5 1155.34C2035.39 1152.98 2038.22 1144.91 2038.22 1144.91Z" fill="#2F2E41"/>
<path d="M2026.57 924.611C2026.57 924.611 2024.99 937.055 2035.07 941.428C2045.15 945.8 2012.71 960.262 2009.56 951.854C2006.41 943.446 2010.19 940.755 2010.19 940.755C2010.19 940.755 2013.34 937.392 2010.51 928.311L2026.57 924.611Z" fill="#FFB8B8"/>
<path d="M2016.49 933.356C2024.14 933.356 2030.35 926.73 2030.35 918.557C2030.35 910.384 2024.14 903.758 2016.49 903.758C2008.84 903.758 2002.64 910.384 2002.64 918.557C2002.64 926.73 2008.84 933.356 2016.49 933.356Z" fill="#FFB8B8"/>
<path d="M2032.55 945.464C2032.55 945.464 2023.1 950.845 2013.97 946.809C2004.84 942.773 2005.16 960.263 2005.16 960.263L2009.88 973.38L2042.63 970.016L2040.42 949.836L2032.55 945.464Z" fill="#F2F2F2"/>
<path d="M2027.86 933.955C2029.54 934.336 2031.11 935.114 2032.47 936.233C2033.83 937.352 2034.93 938.782 2035.7 940.419L2050.82 945.464L2054.59 951.181L2050.19 992.551C2050.19 992.551 2058.37 1000.96 2058.37 1005.67C2058.37 1010.38 2068.45 1026.52 2063.41 1024.5C2058.37 1022.48 2049.24 1015.42 2049.24 1015.42C2049.24 1015.42 2026.25 1016.43 2019.01 1023.16C2011.77 1029.88 2008.93 1027.87 2008.93 1027.87C2008.93 1027.87 2001.38 992.887 2001.06 987.506C2000.75 982.124 1991.93 949.836 1991.93 949.836L2007.67 940.419L2011.68 935.559L2022.79 954.545L2032.87 941.428C2032.87 941.428 2027.89 937.246 2027.86 933.955Z" fill="#3F3D56"/>
<path d="M2059.32 977.079L2061.21 987.842C2061.21 987.842 2069.71 1021.48 2068.45 1032.91C2068.45 1032.91 2069.39 1058.47 2064.04 1055.45C2058.69 1052.42 2061.52 1033.92 2061.52 1033.92L2053.96 1000.62L2049.87 981.115L2059.32 977.079Z" fill="#FFB8B8"/>
<path d="M2051.44 949.163L2054.59 951.181C2054.59 951.181 2066.56 977.752 2063.73 979.77C2060.89 981.788 2048.61 986.16 2048.61 986.16L2051.44 949.163Z" fill="#3F3D56"/>
<path d="M1999.49 949.836L1992.09 949.668L1990.36 952.863L1992.56 985.488L2003.9 988.178L1999.49 949.836Z" fill="#3F3D56"/>
<path d="M2027.77 906.041L2030.27 905.071C2030.27 905.071 2025.05 899.494 2017.78 899.979L2019.83 897.797C2019.83 897.797 2014.83 895.857 2010.29 900.949C2007.91 903.626 2005.14 906.772 2003.42 910.317H2000.75L2001.86 912.701L1997.96 915.086L2001.97 914.657C2001.59 916.716 2001.72 918.845 2002.35 920.833L2003.25 923.5C2003.25 923.5 2006.89 915.741 2006.89 914.771V917.196C2006.89 917.196 2009.38 915.013 2009.38 913.558L2010.75 915.256L2011.43 912.588L2019.83 915.256L2018.47 913.073L2023.69 913.801L2021.64 911.133C2021.64 911.133 2027.55 914.286 2027.77 916.953C2028 919.621 2029.56 923.098 2029.56 923.098L2031.45 920.743C2031.45 920.743 2034.36 909.679 2027.77 906.041Z" fill="#2F2E41"/>
<path d="M2028.14 921.752C2028.75 921.752 2029.24 920.397 2029.24 918.725C2029.24 917.053 2028.75 915.698 2028.14 915.698C2027.53 915.698 2027.04 917.053 2027.04 918.725C2027.04 920.397 2027.53 921.752 2028.14 921.752Z" fill="#FFB8B8"/>
<path d="M1718.49 1146.55C1725.2 1159.84 1739.44 1165.55 1739.44 1165.55C1739.44 1165.55 1742.81 1149.7 1736.09 1136.4C1729.38 1123.11 1715.14 1117.4 1715.14 1117.4C1715.14 1117.4 1711.77 1133.25 1718.49 1146.55Z" fill="#3F3D56"/>
<path d="M1723.1 1142.17C1735.22 1149.96 1739.89 1165.43 1739.89 1165.43C1739.89 1165.43 1724.9 1168.27 1712.79 1160.48C1700.67 1152.69 1696 1137.23 1696 1137.23C1696 1137.23 1710.98 1134.38 1723.1 1142.17Z" fill="#6C63FF"/>
<path opacity="0.3" d="M1848.58 944.841C1848.58 944.841 1885.84 924.075 1911.76 944.841C1937.69 965.608 1983.57 946.803 1983.57 946.803" fill="white"/>
<path d="M1916.22 1156.15C1919.5 1156.15 1922.16 1153.31 1922.16 1149.81C1922.16 1146.3 1919.5 1143.46 1916.22 1143.46C1912.94 1143.46 1910.28 1146.3 1910.28 1149.81C1910.28 1153.31 1912.94 1156.15 1916.22 1156.15Z" fill="white"/>
<path d="M1399.59 1222.06C1398.54 1218.1 1397.48 1214.1 1395.38 1210.65C1393.43 1207.73 1391.12 1205.09 1388.5 1202.81C1380.88 1195.61 1371.53 1188.31 1361.43 1190.12C1358.3 1190.84 1355.28 1191.99 1352.45 1193.54C1350.98 1194.25 1349.5 1194.96 1347.98 1195.56C1343.72 1197.41 1339.02 1197.84 1334.51 1196.78C1332.2 1196.14 1330.05 1194.98 1327.76 1194.26C1326.68 1193.92 1325.57 1193.67 1324.45 1193.51C1326.66 1192.49 1328.8 1191.31 1330.85 1190C1342.18 1182.78 1351.22 1169.73 1349.96 1155.78C1349.53 1151.09 1347.98 1146.59 1346.45 1142.16L1342.41 1130.54C1340.67 1125.51 1338.86 1120.38 1335.68 1116.2C1332.14 1111.55 1327.09 1108.38 1321.88 1106.03C1310.69 1100.97 1298.45 1099.19 1286.38 1097.46L1285.54 1097.34V961.565C1285.54 959.244 1284.65 957.019 1283.08 955.378C1281.5 953.737 1279.36 952.815 1277.13 952.815H1261.26C1260.56 948.352 1259.86 943.897 1259.16 939.449C1257.16 926.75 1255.09 913.821 1249.47 902.391C1245.79 894.91 1239.94 887.767 1232.04 886.302C1230.49 886.156 1228.97 885.788 1227.52 885.208C1225.2 884.027 1223.94 881.401 1222.17 879.465C1217.58 874.467 1210.13 874.39 1204 871.809C1198.57 869.567 1194.14 865.345 1189.2 862.096C1184.26 858.848 1178.12 856.54 1172.66 858.651C1172.66 859.066 1172.58 859.482 1172.54 859.887L1169.03 858.202C1165.25 856.376 1161.39 854.505 1158.35 851.508C1154.45 847.68 1152.37 842.605 1150.75 837.212C1150.59 836.655 1150.43 836.119 1150.26 835.517C1156.98 828.384 1161.53 819.348 1163.33 809.54L1164.19 812.416C1164.38 813.063 1164.6 813.698 1164.86 814.32C1165.29 815.522 1166.02 816.587 1166.96 817.415C1167.23 817.635 1167.53 817.815 1167.84 817.951C1168.13 818.071 1168.44 818.152 1168.75 818.192C1169.18 818.248 1169.63 818.214 1170.05 818.093C1170.76 817.864 1171.41 817.472 1171.96 816.946C1172.5 816.419 1172.93 815.772 1173.2 815.052C1173.37 814.622 1173.49 814.175 1173.57 813.718C1173.61 813.443 1173.64 813.165 1173.64 812.887C1173.64 812.799 1173.64 812.712 1173.64 812.624C1173.64 812.537 1173.64 812.241 1173.64 812.055C1173.64 811.869 1173.64 811.858 1173.64 811.749C1173.64 811.64 1173.64 811.388 1173.59 811.202V810.918C1173.59 810.699 1173.53 810.48 1173.49 810.272C1173.44 810.065 1173.49 810.152 1173.49 810.098C1173.43 809.824 1173.37 809.54 1173.32 809.266C1173.32 809.201 1173.32 809.124 1173.32 809.058C1173.32 808.993 1173.22 808.61 1173.17 808.38C1173.12 808.151 1173.1 808.085 1173.07 807.932V807.866C1172.96 807.429 1172.87 807.002 1172.77 806.565C1172.01 802.768 1171.81 798.872 1172.19 795.014C1172.82 789.352 1173.83 783.742 1175.2 778.225L1175.42 777.229C1175.5 776.846 1175.59 776.464 1175.66 776.07C1175.83 775.282 1176 774.495 1176.16 773.696L1176.53 771.684L1176.82 769.89V769.66C1177.41 765.595 1177.53 761.472 1177.19 757.377C1176.7 751.656 1175 746.242 1171.27 741.933C1168.63 738.881 1165.15 736.628 1162.7 733.423C1160.41 730.426 1159.12 726.729 1156.74 723.787C1150.19 715.638 1133.35 709.36 1123.02 708.266C1111.19 707.019 1092.07 710.169 1082.53 717.443C1079 720.123 1076.58 724.006 1074.12 727.681C1069.6 734.517 1064.47 741.342 1057.23 745.181C1054.5 746.625 1051.37 747.719 1049.55 750.235C1048.47 751.94 1047.77 753.876 1047.5 755.9C1046.11 763.022 1045.38 770.268 1045.33 777.535C1045.33 778.443 1045.33 779.351 1045.33 780.27C1045.36 782.995 1045.91 785.686 1046.97 788.178C1047.14 788.55 1047.33 788.911 1047.53 789.272L1047.66 789.501C1048.93 791.393 1050.05 793.386 1051.02 795.463C1051.26 796.044 1051.43 796.654 1051.54 797.278C1051.72 798.881 1051.62 800.504 1051.24 802.069C1051.24 802.31 1051.15 802.55 1051.1 802.791L1051.01 803.261C1051.01 803.425 1051.01 803.589 1050.93 803.743C1050.84 804.213 1050.77 804.683 1050.7 805.143C1050.55 806.408 1050.62 807.693 1050.94 808.927C1051.08 809.615 1051.36 810.263 1051.76 810.828C1052.17 811.394 1052.68 811.864 1053.27 812.209C1053.87 812.507 1054.51 812.714 1055.16 812.821C1055.82 812.941 1056.5 813.018 1057.15 813.171C1057.99 813.37 1058.79 813.682 1059.55 814.101C1060.28 814.463 1060.96 814.919 1061.58 815.457C1061.89 815.747 1062.18 816.054 1062.45 816.376C1063.01 817.037 1063.51 817.747 1063.95 818.498C1064.17 818.884 1064.38 819.278 1064.58 819.679C1065.33 821.262 1065.93 822.918 1066.37 824.623C1066.65 825.64 1066.88 826.668 1067.08 827.697C1067.17 828.156 1067.26 828.615 1067.33 829.064C1067.4 829.512 1067.48 829.972 1067.54 830.42C1067.83 830.403 1068.11 830.344 1068.38 830.245C1069.93 829.665 1070.79 827.795 1071.27 825.979C1071.36 825.673 1071.43 825.378 1071.49 825.082C1071.73 823.989 1071.99 822.785 1072.23 821.637C1076.37 830.793 1083.05 838.449 1091.41 843.622C1091.7 844.53 1091.99 845.427 1092.24 846.346C1093.61 851.3 1094.28 856.485 1091.89 860.816C1090.19 863.89 1087.33 865.782 1084.14 867.095C1083.67 866.456 1083.08 865.932 1082.4 865.563C1079.64 864.12 1076.32 865.87 1073.99 868.024C1069.79 871.984 1066.36 877.661 1060.84 878.962C1058.84 879.444 1056.63 879.345 1054.97 880.614C1053.87 881.689 1052.95 882.945 1052.25 884.333C1051.05 886.126 1049.44 887.576 1047.56 888.551C1045.68 889.525 1043.6 889.993 1041.5 889.911C1039.58 889.813 1037.29 889.353 1035.98 890.819C1035 891.913 1034.93 893.641 1033.88 894.68C1032.47 896.124 1030.16 895.424 1028.19 895.336C1024.45 895.172 1020.97 897.688 1018.84 900.915C1016.71 904.141 1015.69 908.002 1014.64 911.852V911.918C1014.37 912.122 1014.11 912.345 1013.87 912.585C1012.85 913.715 1012.06 915.047 1011.55 916.501C1003.05 936.64 998.031 958.183 996.729 980.137C996.749 981.207 996.518 982.266 996.056 983.222C995.586 983.846 995.069 984.432 994.511 984.972C994.012 985.608 993.64 986.342 993.419 987.131C993.197 987.92 993.13 988.746 993.221 989.562C993.312 990.379 993.56 991.167 993.949 991.882C994.339 992.596 994.862 993.222 995.488 993.722C995.791 993.152 996.169 992.629 996.613 992.169C996.497 992.672 996.392 993.165 996.319 993.613C995.897 996.804 995.858 1000.04 996.203 1003.24C997.198 1018.43 998.203 1033.62 999.219 1048.79C999.503 1053.09 999.787 1057.38 1000.17 1061.67C1000.9 1069.97 1001.95 1078.23 1003.32 1086.46C1003.38 1086.84 1003.45 1087.22 1003.55 1087.56C994.984 1090.39 987.365 1095.51 984.159 1104.05C983.045 1107.01 982.541 1110.22 981.175 1113.05C979.672 1116.16 977.202 1118.64 975.563 1121.68C972.736 1126.91 972.609 1133.32 973.639 1139.19C975.626 1150.62 981.563 1160.83 989.404 1169.14C989.057 1169.14 988.699 1169.14 988.353 1169.14C985.791 1169.44 983.332 1170.36 981.175 1171.82C964.591 1181.91 955.111 1203.54 958.569 1223.3C959.252 1227.16 960.44 1231.07 962.92 1234.02C964.981 1236.36 967.632 1238.05 970.571 1238.89C972.408 1239.47 974.301 1239.84 976.214 1239.99C989.141 1241.08 1001.66 1234.85 1014.62 1234.32C1018.91 1234.25 1023.2 1234.46 1027.47 1234.95C1033.71 1235.49 1039.96 1235.83 1046.23 1235.97C1056.41 1236.23 1062.14 1233.4 1068.63 1225.48C1070.23 1223.52 1071.56 1221.33 1072.6 1218.99C1078.12 1218.66 1084.23 1218.16 1088.64 1217.78L1088.71 1218.42C1088.95 1220.61 1089.32 1223.12 1091 1224.5C1091.94 1225.18 1093.02 1225.64 1094.15 1225.85C1104.77 1228.56 1115.51 1231.31 1126.44 1231.31C1131.56 1231.21 1136.68 1230.8 1141.77 1230.09L1160.97 1227.78C1166.56 1228.52 1172.09 1229.77 1177.47 1231.52C1183.02 1233.48 1188.2 1236.39 1193.62 1238.7C1206.23 1244.01 1219.79 1245.92 1233.22 1247.78C1235.51 1248.09 1238.14 1248.31 1239.83 1246.68C1242.02 1244.49 1241.29 1240.84 1240.67 1237.78C1240.42 1236.52 1240.23 1235.26 1240.08 1233.99C1249.15 1236.48 1258.02 1239.68 1266.61 1243.58L1268.11 1244.27C1268.55 1246.65 1270.67 1248.55 1272.7 1251.12C1273.36 1252.21 1274.14 1253.21 1275.02 1254.12C1276.02 1254.8 1277.16 1255.22 1278.35 1255.37C1292.53 1258.12 1307.01 1258.8 1321.36 1257.39C1324.3 1256.97 1327.27 1256.87 1330.23 1257.07C1332.41 1257.38 1334.55 1257.88 1336.65 1258.57L1348.8 1262.2C1357.77 1264.87 1366.94 1267.57 1376.24 1266.97C1378.13 1266.85 1380 1266.57 1381.85 1266.13C1389.2 1264.36 1396.05 1260.08 1399.59 1253.2C1404.58 1243.85 1402.28 1232.34 1399.59 1222.06Z" fill="url(#paint0_linear)"/>
<path d="M1059.39 1219.93C1057.17 1214.68 1055.07 1208.64 1057.28 1203.39C1058.73 1200.3 1061.22 1197.87 1064.27 1196.55C1067.3 1195.27 1070.48 1194.45 1073.73 1194.13C1083.93 1192.73 1094.25 1192.59 1104.48 1193.69C1105.23 1199.84 1103.65 1206.07 1102.3 1212.01C1101.07 1217.48 1100.36 1218.29 1094.94 1218.57C1091.43 1218.77 1060.22 1221.86 1059.39 1219.93Z" fill="#FBBEBE"/>
<path d="M1152.97 1184.51C1235.97 1184.51 1303.26 1164.92 1303.26 1140.76C1303.26 1116.6 1235.97 1097.01 1152.97 1097.01C1069.97 1097.01 1002.69 1116.6 1002.69 1140.76C1002.69 1164.92 1069.97 1184.51 1152.97 1184.51Z" fill="#464353"/>
<path opacity="0.1" d="M1152.97 1184.51C1235.97 1184.51 1303.26 1164.92 1303.26 1140.76C1303.26 1116.6 1235.97 1097.01 1152.97 1097.01C1069.97 1097.01 1002.69 1116.6 1002.69 1140.76C1002.69 1164.92 1069.97 1184.51 1152.97 1184.51Z" fill="black"/>
<path d="M1179.92 909.796C1174.77 920.156 1166.21 928.245 1155.81 932.591C1149.67 934.92 1143.21 936.198 1136.67 936.375C1129.54 936.714 1122.25 936.233 1115.55 933.695C1106.55 930.305 1099.08 923.37 1093.48 915.287C1087.88 907.204 1084.02 897.972 1080.67 888.664C1078.9 883.819 1077.22 878.656 1078.05 873.537C1083.46 872.257 1089.39 870.376 1092.19 865.377C1094.57 861.09 1093.91 855.949 1092.53 851.049C1092.14 849.66 1091.69 848.282 1091.24 846.958C1090.19 843.786 1086.56 837.759 1089.14 835.047C1090.75 833.33 1097.48 832.455 1099.8 831.339C1106.96 827.904 1113.56 822.939 1121.42 821.309C1128.22 819.898 1135.24 821.221 1142.03 822.687C1142.93 822.823 1143.8 823.147 1144.57 823.639C1145.46 824.416 1146.12 825.441 1146.47 826.592C1148.4 831.492 1149.54 836.906 1151.09 842.014C1152.71 847.363 1154.79 852.383 1158.69 856.179C1161.73 859.143 1165.59 861.002 1169.38 862.807L1178.69 867.248C1180.34 867.893 1181.85 868.905 1183.09 870.212C1184.31 871.954 1185.04 874.014 1185.19 876.162C1186.86 887.672 1185.02 899.436 1179.92 909.796Z" fill="#FBBEBE"/>
<path opacity="0.1" d="M1151.05 842.014C1143.63 850.049 1133.87 855.295 1123.28 856.93C1112.69 858.565 1101.88 856.497 1092.54 851.049C1092.15 849.66 1091.7 848.282 1091.25 846.958C1090.2 843.786 1086.57 837.759 1089.15 835.047C1090.76 833.33 1097.49 832.455 1099.82 831.339C1106.97 827.904 1113.57 822.939 1121.43 821.309C1128.23 819.898 1135.25 821.221 1142.04 822.687C1142.94 822.823 1143.81 823.147 1144.59 823.639C1145.47 824.416 1146.13 825.441 1146.48 826.592C1148.36 831.492 1149.49 836.906 1151.05 842.014Z" fill="black"/>
<path d="M1116.19 855.282C1142.89 855.282 1164.53 832.755 1164.53 804.968C1164.53 777.18 1142.89 754.653 1116.19 754.653C1089.49 754.653 1067.85 777.18 1067.85 804.968C1067.85 832.755 1089.49 855.282 1116.19 855.282Z" fill="#FBBEBE"/>
<path d="M1263.48 968.259L1259.51 943.211C1257.5 930.644 1255.43 917.835 1249.82 906.515C1246.13 899.099 1240.27 892.033 1232.38 890.567C1230.83 890.423 1229.3 890.055 1227.84 889.474C1225.53 888.314 1224.27 885.711 1222.49 883.786C1217.91 878.842 1210.45 878.765 1204.31 876.25C1198.89 874.062 1194.45 869.851 1189.51 866.635C1184.57 863.42 1178.43 861.166 1172.96 863.223C1172.08 873.012 1171.14 883.02 1167.15 891.935C1164.55 897.738 1160.74 902.863 1155.99 906.936C1151.24 911.008 1145.68 913.925 1139.71 915.472C1133.74 917.02 1127.51 917.159 1121.49 915.88C1115.46 914.601 1109.78 911.935 1104.87 908.079C1095.51 900.74 1089.51 889.419 1086.71 877.573C1086.03 874.686 1085.25 871.371 1082.7 870.048C1079.93 868.604 1076.61 870.354 1074.29 872.476C1070.08 876.403 1066.65 882.025 1061.12 883.348C1059.12 883.83 1056.92 883.731 1055.26 884.989C1054.15 886.049 1053.23 887.295 1052.52 888.675C1051.31 890.454 1049.7 891.892 1047.82 892.858C1045.94 893.824 1043.86 894.289 1041.77 894.21C1039.85 894.111 1037.57 893.652 1036.25 895.107C1035.28 896.2 1035.2 897.907 1034.15 898.924C1032.73 900.357 1030.43 899.657 1028.46 899.58C1024.72 899.416 1021.24 901.91 1019.09 905.049C1016.95 908.188 1015.94 912.071 1014.89 915.834C1026.38 942.457 1036.88 969.112 1048.37 995.735C1048.91 996.738 1049.2 997.867 1049.2 999.016C1048.97 1000.21 1048.48 1001.33 1047.77 1002.3C1042.14 1011.72 1042.32 1023.56 1042.94 1034.63C1043.56 1045.7 1044.32 1057.39 1039.56 1067.31C1038.27 1070.04 1036.59 1072.53 1035.36 1075.25C1032.48 1081.42 1031.44 1101.15 1033.12 1107.78H1270.72C1266.19 1094.82 1267.91 1068.81 1268.86 1055.05C1269.52 1045.43 1267.81 1035.81 1267.07 1026.19C1265.46 1006.53 1266.6 987.882 1263.48 968.259Z" fill="#6C63FF"/>
<path d="M996.687 996.916C996.266 1000.08 996.224 1003.29 996.561 1006.46L999.577 1051.61C999.86 1055.86 1000.14 1060.1 1000.52 1064.35C1001.25 1072.58 1002.33 1080.75 1003.68 1088.91C1003.71 1090.07 1004.18 1091.17 1004.98 1091.97C1005.79 1092.77 1006.87 1093.2 1007.98 1093.17C1021.28 1096.1 1035.01 1095.98 1048.58 1095.18C1069.29 1093.98 1089.96 1091.23 1110.69 1091.7C1116.03 1091.82 1122.25 1091.7 1125.49 1087.33C1128.73 1082.95 1126.85 1075.88 1122.62 1072.34C1118.4 1068.81 1112.66 1067.97 1107.24 1067.97C1100.06 1067.89 1092.88 1068.95 1085.72 1068.52C1079.15 1068.11 1072.73 1066.46 1066.36 1064.81L1048.5 1060.18C1049.18 1054.55 1051.24 1049.24 1053.2 1043.89C1056.71 1034.41 1059.98 1024.61 1060.05 1014.45C1060.11 1004.29 1056.43 993.602 1048.43 987.783C1041.86 983.003 1033.39 982.117 1025.37 982.314C1019.53 982.489 1009.46 981.034 1004.13 983.408C999.913 985.333 997.475 992.618 996.687 996.916Z" fill="#FBBEBE"/>
<path d="M1275.64 1100.13C1279.14 1098.74 1282.99 1099.24 1286.75 1099.76C1298.82 1101.48 1311.08 1103.24 1322.27 1108.26C1327.52 1110.6 1332.53 1113.73 1336.08 1118.34C1339.23 1122.48 1341.07 1127.56 1342.81 1132.56L1346.85 1144.06C1348.38 1148.44 1349.94 1152.9 1350.37 1157.55C1351.63 1171.32 1342.58 1184.3 1331.2 1191.46C1319.82 1198.61 1306.42 1201.16 1293.37 1203.83C1280.31 1206.5 1267.21 1209.45 1254.21 1212.58C1248.15 1214.22 1241.99 1215.48 1235.79 1216.35C1221.87 1217.99 1207.33 1215.58 1194.11 1220.37C1188.85 1222.28 1183.69 1225.12 1178.24 1226.45C1174.61 1227.24 1170.95 1227.82 1167.26 1228.19L1142.24 1231.16C1137.15 1231.87 1132.03 1232.28 1126.9 1232.39C1115.97 1232.39 1105.22 1229.7 1094.6 1227.01C1093.47 1226.8 1092.4 1226.35 1091.45 1225.68C1089.77 1224.3 1089.4 1221.86 1089.16 1219.65C1088.09 1209.88 1087.15 1200.09 1086.34 1190.29C1086.09 1187.1 1085.9 1183.66 1087.57 1180.98C1089.67 1177.7 1093.77 1176.67 1097.51 1176.03C1113.38 1173.33 1129.45 1172.17 1145.52 1172.57C1151.63 1166.21 1161.69 1166.18 1169.69 1162.72C1172.63 1161.32 1175.48 1159.71 1178.22 1157.9C1192.52 1149.21 1208.51 1143.96 1225.01 1142.51C1228.25 1142.41 1231.46 1141.93 1234.59 1141.09C1240.78 1139.09 1246.42 1133.64 1252.78 1134.97C1253.57 1132.71 1254.11 1129.68 1255.93 1128.13C1256.84 1127.33 1257.95 1126.79 1258.78 1125.94C1260.54 1124.09 1260.69 1121.18 1260.43 1118.6C1260.17 1116.02 1259.58 1113.37 1260.22 1110.86C1260.49 1109.9 1260.88 1108.99 1261.39 1108.15C1264.54 1102.49 1269.3 1099.58 1275.64 1100.13Z" fill="#464353"/>
<path opacity="0.05" d="M1275.64 1100.13C1279.14 1098.74 1282.99 1099.24 1286.75 1099.76C1298.82 1101.48 1311.08 1103.24 1322.27 1108.26C1327.52 1110.6 1332.53 1113.73 1336.08 1118.34C1339.23 1122.48 1341.07 1127.56 1342.81 1132.56L1346.85 1144.06C1348.38 1148.44 1349.94 1152.9 1350.37 1157.55C1351.63 1171.32 1342.58 1184.3 1331.2 1191.46C1319.82 1198.61 1306.42 1201.16 1293.37 1203.83C1280.31 1206.5 1267.21 1209.45 1254.21 1212.58C1248.15 1214.22 1241.99 1215.48 1235.79 1216.35C1221.87 1217.99 1207.33 1215.58 1194.11 1220.37C1188.85 1222.28 1183.69 1225.12 1178.24 1226.45C1174.61 1227.24 1170.95 1227.82 1167.26 1228.19L1142.24 1231.16C1137.15 1231.87 1132.03 1232.28 1126.9 1232.39C1115.97 1232.39 1105.22 1229.7 1094.6 1227.01C1093.47 1226.8 1092.4 1226.35 1091.45 1225.68C1089.77 1224.3 1089.4 1221.86 1089.16 1219.65C1088.09 1209.88 1087.15 1200.09 1086.34 1190.29C1086.09 1187.1 1085.9 1183.66 1087.57 1180.98C1089.67 1177.7 1093.77 1176.67 1097.51 1176.03C1113.38 1173.33 1129.45 1172.17 1145.52 1172.57C1151.63 1166.21 1161.69 1166.18 1169.69 1162.72C1172.63 1161.32 1175.48 1159.71 1178.22 1157.9C1192.52 1149.21 1208.51 1143.96 1225.01 1142.51C1228.25 1142.41 1231.46 1141.93 1234.59 1141.09C1240.78 1139.09 1246.42 1133.64 1252.78 1134.97C1253.57 1132.71 1254.11 1129.68 1255.93 1128.13C1256.84 1127.33 1257.95 1126.79 1258.78 1125.94C1260.54 1124.09 1260.69 1121.18 1260.43 1118.6C1260.17 1116.02 1259.58 1113.37 1260.22 1110.86C1260.49 1109.9 1260.88 1108.99 1261.39 1108.15C1264.54 1102.49 1269.3 1099.58 1275.64 1100.13Z" fill="black"/>
<path d="M1069.05 1226.69C1062.55 1234.53 1056.82 1237.33 1046.64 1237.08C1040.37 1236.93 1034.12 1236.59 1027.87 1236.06C1023.6 1235.58 1019.3 1235.37 1015 1235.44C1002.04 1235.96 989.519 1242.14 976.582 1241.06C974.669 1240.9 972.777 1240.54 970.938 1239.97C968.004 1239.13 965.351 1237.45 963.277 1235.13C960.797 1232.21 959.609 1228.34 958.926 1224.51C955.469 1204.89 964.948 1183.52 981.542 1173.53C983.708 1172.07 986.169 1171.16 988.731 1170.87C991.243 1170.86 993.727 1171.43 996.003 1172.53L996.161 1172.6C1002.9 1175.49 1009.03 1179.74 1014.17 1185.11C1014.96 1186.04 1015.89 1186.83 1016.93 1187.42C1017.97 1187.83 1019.07 1188.04 1020.18 1188.06L1033.98 1188.96C1036.32 1189.04 1038.65 1189.37 1040.92 1189.96C1043.42 1190.87 1045.86 1191.97 1048.21 1193.24C1055.64 1196.7 1063.88 1197.62 1071.91 1198.95C1072.69 1198.99 1073.42 1199.3 1074.01 1199.82C1074.34 1200.24 1074.56 1200.73 1074.67 1201.25C1075.79 1205.64 1075.87 1210.26 1074.9 1214.69C1073.92 1219.13 1071.91 1223.24 1069.05 1226.69Z" fill="#3F3D56"/>
<path opacity="0.1" d="M996.161 1172.61C990.803 1177.94 986.155 1183.98 982.341 1190.59C976.22 1201.5 972.375 1213.63 971.054 1226.18C970.553 1230.77 970.514 1235.39 970.938 1239.98C968.004 1239.14 965.351 1237.46 963.277 1235.14C960.797 1232.22 959.609 1228.35 958.926 1224.52C955.469 1204.9 964.948 1183.53 981.542 1173.54C983.708 1172.09 986.169 1171.18 988.731 1170.88C991.243 1170.87 993.727 1171.44 996.003 1172.55L996.161 1172.61Z" fill="black"/>
<path d="M1263.62 1199.82C1271.34 1199.61 1280.01 1199.2 1285.68 1204.62C1291.1 1209.73 1291.81 1218.18 1292.17 1225.78L1292.58 1234.61C1292.71 1237.3 1292.81 1240.08 1291.77 1242.57C1289.92 1246.94 1284.84 1249.06 1280.21 1248.8C1275.57 1248.55 1271.32 1246.44 1267.08 1244.54C1255.58 1239.38 1243.61 1235.46 1231.35 1232.82C1231.75 1226.72 1232.42 1220.65 1233.35 1214.6C1233.99 1210.41 1234.09 1203.4 1236.78 1199.92C1239.63 1196.25 1243.34 1198.24 1247.21 1198.92C1252.64 1199.78 1258.13 1200.08 1263.62 1199.82Z" fill="#FBBEBE"/>
<path d="M1059.48 1111.13C1059.48 1112.22 1057.83 1111.13 1057.68 1109.96C1056.53 1101.11 1049.78 1093.81 1041.92 1090.27C1034.06 1086.73 1025.1 1086.54 1016.59 1087.38C1003.72 1088.65 989.267 1093.78 984.559 1106.31C983.445 1109.24 982.94 1112.41 981.574 1115.22C980.061 1118.3 977.591 1120.77 975.951 1123.76C973.124 1128.95 973.009 1135.3 974.028 1141.16C976.771 1156.81 987.049 1170.18 999.503 1179.45C1011.96 1188.71 1026.51 1194.25 1041.03 1199.23C1079.4 1212.41 1118.78 1222.19 1158.73 1228.49C1165.2 1229.51 1171.74 1230.45 1177.94 1232.62C1183.49 1234.55 1188.68 1237.45 1194.11 1239.73C1206.72 1245 1220.28 1246.88 1233.73 1248.73C1236.02 1249.03 1238.64 1249.25 1240.34 1247.63C1242.52 1245.52 1241.8 1241.85 1241.18 1238.82C1238.9 1227.3 1240.81 1215.31 1246.55 1205.17C1248.8 1201.24 1251.72 1197.2 1251.3 1192.64C1250.79 1187.32 1245.71 1183.56 1240.64 1182.71C1235.58 1181.85 1230.43 1183.11 1225.34 1183.8C1223.58 1184.04 1221.67 1184.19 1220.14 1183.26C1219.38 1182.73 1218.7 1182.1 1218.1 1181.38C1214.59 1177.87 1210.11 1175.59 1205.29 1174.89C1200.47 1174.19 1195.55 1175.1 1191.26 1177.48C1189.38 1178.57 1186.53 1176.13 1184.57 1175.21L1162.47 1164.8C1137.08 1152.85 1111.56 1140.84 1084.7 1133.27C1082.56 1132.83 1080.52 1131.95 1078.71 1130.68C1077.38 1129.58 1076.42 1128.09 1075.19 1126.88C1072.51 1124.24 1068.78 1123.19 1065.57 1121.32C1062.35 1119.45 1058.74 1114.88 1059.48 1111.13Z" fill="#464353"/>
<path d="M1400.21 1254.08C1396.67 1260.89 1389.82 1265.13 1382.47 1266.88C1380.62 1267.32 1378.74 1267.6 1376.85 1267.72C1367.55 1268.32 1358.37 1265.64 1349.4 1262.99L1337.23 1259.42C1335.14 1258.74 1333 1258.24 1330.82 1257.94C1327.86 1257.73 1324.89 1257.84 1321.95 1258.25C1307.57 1259.65 1293.07 1258.97 1278.86 1256.24C1277.68 1256.11 1276.53 1255.69 1275.53 1255.01C1274.66 1254.11 1273.88 1253.12 1273.21 1252.04C1269.9 1247.9 1266.34 1245.48 1270.26 1240.01C1272.52 1236.84 1276.71 1235.25 1278.46 1231.61C1280.22 1227.97 1279.1 1222.79 1278.06 1219.03C1276.64 1213.84 1271.97 1211.59 1270.3 1206.82C1269.05 1203.23 1271.15 1199.05 1274.31 1197.09C1277.48 1195.13 1281.39 1194.98 1285.03 1195.48C1288.68 1195.99 1292.25 1197.06 1295.92 1197.35C1306.7 1198.25 1317.73 1192.46 1328.08 1195.72C1330.36 1196.44 1332.51 1197.59 1334.83 1198.23C1339.33 1199.28 1344.04 1198.85 1348.31 1197.01C1349.82 1196.42 1351.31 1195.71 1352.78 1195.01C1355.61 1193.47 1358.64 1192.34 1361.76 1191.63C1371.86 1189.83 1381.23 1197.1 1388.85 1204.2C1391.46 1206.46 1393.78 1209.07 1395.73 1211.97C1397.83 1215.38 1398.94 1219.35 1399.93 1223.26C1402.72 1233.38 1405.02 1244.78 1400.21 1254.08Z" fill="#3F3D56"/>
<path opacity="0.1" d="M1400.21 1254.08C1396.67 1260.89 1389.82 1265.13 1382.47 1266.88C1385.33 1261.1 1386.62 1254.61 1386.2 1248.12C1385.57 1237.71 1381.17 1227.91 1375.57 1219.27C1372.13 1213.95 1368.21 1208.98 1363.86 1204.43C1360.52 1200.93 1356.41 1198.15 1352.82 1194.95C1355.66 1193.41 1358.68 1192.27 1361.8 1191.57C1371.9 1189.76 1381.27 1197.04 1388.89 1204.13C1391.5 1206.39 1393.82 1209 1395.77 1211.9C1397.87 1215.31 1398.99 1219.28 1399.97 1223.2C1402.72 1233.38 1405.02 1244.78 1400.21 1254.08Z" fill="black"/>
<path d="M1014.29 916.643C1013.27 917.759 1012.47 919.08 1011.96 920.526C1003.46 940.452 998.444 961.793 997.138 983.55C997.161 984.611 996.926 985.661 996.455 986.602C995.991 987.228 995.474 987.81 994.91 988.341C994.399 988.972 994.017 989.706 993.789 990.497C993.56 991.287 993.49 992.119 993.583 992.939C993.676 993.759 993.929 994.551 994.327 995.265C994.725 995.979 995.26 996.601 995.898 997.091C997.632 993.69 1001.78 992.585 1005.47 992.29C1023.14 990.835 1040.4 999.388 1058.11 998.743C1056.86 994.247 1055.07 989.927 1054.05 985.377C1049.54 965.175 1060.78 943.178 1053.89 923.72C1052.51 919.826 1050.21 915.998 1046.59 914.292C1045.08 913.66 1043.51 913.227 1041.91 913.001C1037.43 912.159 1028.52 908.56 1024.19 910.004C1022.59 910.54 1021.96 912.104 1020.64 913.045C1018.63 914.39 1015.96 914.882 1014.29 916.643Z" fill="#6C63FF"/>
<path d="M1277.54 956.457H1059.93C1055.31 956.457 1051.56 960.36 1051.56 965.175V1103.06C1051.56 1107.87 1055.31 1111.77 1059.93 1111.77H1277.54C1282.17 1111.77 1285.92 1107.87 1285.92 1103.06V965.175C1285.92 960.36 1282.17 956.457 1277.54 956.457Z" fill="#3F3D56"/>
<path d="M1168.21 1040.68C1171.69 1040.68 1174.52 1037.74 1174.52 1034.12C1174.52 1030.49 1171.69 1027.55 1168.21 1027.55C1164.73 1027.55 1161.91 1030.49 1161.91 1034.12C1161.91 1037.74 1164.73 1040.68 1168.21 1040.68Z" fill="white"/>
<path d="M1082.79 723.306C1079.26 725.963 1076.84 729.781 1074.38 733.445C1069.85 740.215 1064.72 746.975 1057.48 750.749C1054.74 752.182 1051.61 753.264 1049.79 755.758C1048.71 757.445 1048.01 759.363 1047.74 761.369C1046.35 768.426 1045.63 775.605 1045.58 782.808C1045.58 786.395 1045.72 790.092 1047.25 793.352C1048.69 796.414 1051.28 799.007 1051.82 802.343C1052.23 804.946 1051.3 807.538 1050.98 810.152C1050.65 812.766 1051.22 815.862 1053.54 817.109C1054.79 817.599 1056.1 817.918 1057.43 818.06C1064.42 819.679 1066.76 828.211 1067.82 835.266C1070.2 835.123 1071.27 832.29 1071.77 829.983L1079.05 796.283C1079.84 792.63 1081.15 788.397 1084.65 787.117C1086.99 786.275 1089.56 787.062 1092.01 787.281C1101.62 788.101 1109.76 780.368 1119.16 778.236C1122.17 777.603 1125.25 777.39 1128.32 777.601C1135.74 777.984 1144.36 781.156 1145.94 788.364C1146.2 789.534 1146.36 790.934 1147.41 791.514C1148.46 792.094 1149.57 791.602 1150.67 791.514C1155.38 791.022 1158.15 796.535 1159.51 801.041L1164.45 817.448C1165.18 819.931 1166.42 822.851 1169.01 823.168C1171.4 823.475 1173.42 821.123 1173.78 818.793C1174.14 816.463 1173.36 814.046 1172.85 811.705C1170.52 800.932 1174.08 789.906 1176.24 779.111C1178.4 768.315 1178.79 755.911 1171.53 747.599C1168.89 744.591 1165.43 742.348 1162.97 739.176C1160.68 736.201 1159.38 732.548 1157.01 729.628C1150.44 721.566 1133.59 715.343 1123.26 714.315C1111.46 712.98 1092.33 716.098 1082.79 723.306Z" fill="#3F3D56"/>
<g opacity="0.1">
<path opacity="0.1" d="M1169.05 815.512C1166.47 815.184 1165.23 812.23 1164.49 809.791C1162.84 804.315 1161.2 798.846 1159.55 793.384C1158.2 788.867 1155.42 783.354 1150.71 783.858C1149.61 783.978 1148.42 784.426 1147.45 783.858C1146.49 783.289 1146.25 781.878 1145.98 780.707C1144.41 773.488 1135.78 770.327 1128.36 769.945C1125.29 769.735 1122.22 769.945 1119.21 770.568C1109.8 772.756 1101.67 780.412 1092.05 779.614C1089.57 779.406 1087 778.618 1084.69 779.461C1081.15 780.729 1079.88 784.93 1079.09 788.627L1071.81 822.315C1071.31 824.634 1070.24 827.467 1067.87 827.598C1066.82 820.554 1064.46 812.023 1057.47 810.404C1056.14 810.251 1054.84 809.932 1053.58 809.452C1052.67 808.932 1051.95 808.103 1051.56 807.101C1051.37 808.118 1051.15 809.135 1051.02 810.152C1050.7 812.755 1051.26 815.862 1053.58 817.109C1054.84 817.599 1056.14 817.918 1057.47 818.06C1064.46 819.679 1066.81 828.211 1067.87 835.266C1070.24 835.123 1071.31 832.29 1071.81 829.983L1079.09 796.283C1079.88 792.63 1081.19 788.397 1084.69 787.117C1087.04 786.275 1089.6 787.062 1092.05 787.281C1101.67 788.101 1109.8 780.368 1119.21 778.236C1122.22 777.603 1125.29 777.39 1128.36 777.601C1135.78 777.984 1144.41 781.156 1145.98 788.364C1146.25 789.534 1146.4 790.934 1147.45 791.514C1148.51 792.094 1149.61 791.602 1150.71 791.514C1155.42 791.022 1158.2 796.535 1159.55 801.041C1161.19 806.517 1162.84 811.986 1164.49 817.448C1165.23 819.931 1166.47 822.851 1169.05 823.168C1171.44 823.475 1173.47 821.123 1173.82 818.793C1173.98 816.833 1173.77 814.859 1173.19 812.985C1172.82 813.783 1172.22 814.449 1171.49 814.898C1170.75 815.348 1169.9 815.561 1169.05 815.512Z" fill="black"/>
<path opacity="0.1" d="M1051.83 794.686C1051.29 791.35 1048.68 788.758 1047.26 785.695C1046.35 783.629 1045.82 781.403 1045.7 779.132C1045.7 780.357 1045.6 781.583 1045.59 782.818C1045.59 786.406 1045.73 790.103 1047.26 793.363C1048.42 795.845 1050.35 798.033 1051.31 800.56C1051.82 798.65 1052 796.66 1051.83 794.686Z" fill="black"/>
<path opacity="0.1" d="M1176.28 771.41C1174.37 780.948 1171.38 790.661 1172.31 800.221C1172.91 793.166 1174.88 786.067 1176.28 779.067C1177.45 773.751 1177.86 768.286 1177.5 762.846C1177.27 765.725 1176.87 768.586 1176.28 771.41Z" fill="black"/>
</g>
<g opacity="0.1">
<path opacity="0.1" d="M1018.75 836.906C1018.75 836.906 940.167 802.518 929.868 864.568C929.868 864.568 924.497 874.237 931.97 882.222C931.97 882.222 933.578 877.934 941.165 882.364C943.875 883.924 946.754 885.143 949.741 885.995C953.775 887.153 958.061 886.915 961.953 885.317C961.953 885.317 987.796 883.862 1009.53 848.675C1009.53 848.675 1018.85 842.681 1019.31 840.428L1003.74 841.522C1003.74 841.522 1004.94 853.39 998.484 860.51C998.484 860.51 1004.2 842.091 1001.46 841.577C1000.9 841.467 993.229 842.517 993.229 842.517C993.229 842.517 995.215 863.157 984.821 873.832C984.821 873.832 994.469 852.843 990.276 842.889L978.779 845.197C978.779 845.197 981.931 866.909 970.56 879.531C970.56 879.531 979.914 857.218 976.298 845.886L965.295 849.736C965.295 849.736 967.943 870.967 958.432 881.456C958.432 881.456 966.735 854.538 962.825 850.83C962.825 850.83 952.925 855.008 950.813 857.393C950.813 857.393 952.379 872.706 946.336 878.229C946.336 878.229 950.046 859.635 948.207 858.869C948.207 858.869 936.709 867.882 933.199 875.659C933.199 875.659 937.571 863.781 946.767 857.065C946.767 857.065 939.042 855.708 933.105 859.066C933.105 859.066 937.077 851.18 949.552 854.921C949.552 854.921 958.79 848.26 960.639 848.358C960.639 848.358 948.837 842.889 940.314 843.567C940.314 843.567 949.457 838.098 963.519 847.232L974.501 843.108C974.501 843.108 959.263 834.981 951.633 835.014C951.633 835.014 961.785 830.923 977.349 842.299L988.594 839.914C988.594 839.914 975.983 831.875 967.481 830.004C967.481 830.004 977.675 828.32 991.842 839.356L999.524 838.689C999.524 838.689 990.223 832.98 987.407 831.59C984.59 830.201 984.716 829.304 984.716 829.304C991.4 830.496 997.636 833.593 1002.73 838.252C1002.73 838.252 1018.68 837.923 1018.75 836.906Z" fill="#6C63FF"/>
</g>
<g opacity="0.1">
<path opacity="0.1" d="M1015.85 775.26C1015.85 775.26 988.016 708.244 947.923 738.98C947.923 738.98 939.452 741.539 939.515 750.683C939.515 750.683 942.815 749.086 944.907 756.229C945.673 758.762 946.732 761.19 948.059 763.458C949.814 766.542 952.49 768.943 955.679 770.295C955.679 770.295 971.832 784.755 1004.02 776.737C1004.02 776.737 1012.85 778.695 1014.35 777.645L1004.52 769.037C1004.52 769.037 998.725 776.803 990.969 777.175C990.969 777.175 1004.45 769.627 1003.11 767.691C1002.83 767.298 997.695 763.382 997.695 763.382C997.695 763.382 987.585 776.814 975.626 777.021C975.626 777.021 992.851 770.262 995.804 761.872L987.711 756.404C987.711 756.404 977.507 771.181 963.845 771.946C963.845 771.946 981.616 764.235 985.673 755.354L977.023 751.121C977.023 751.121 966.976 765.34 955.616 765.876C955.616 765.876 975.289 754.807 974.985 750.289C974.985 750.289 966.819 746.899 964.223 747.095C964.223 747.095 956.793 757.104 950.161 756.819C950.161 756.819 962.552 747.97 961.879 746.428C961.879 746.428 950.109 744.963 943.772 747.522C943.772 747.522 952.873 743.059 962.005 744.525C962.005 744.525 958.159 739.133 952.81 737.634C952.81 737.634 959.494 735.304 964.853 744.908C964.853 744.908 973.976 746.439 975.048 747.577C975.048 747.577 971.044 737.306 965.589 732.679C965.589 732.679 973.997 734.867 977.36 748.616L986.146 752.674C986.146 752.674 981.542 738.805 976.981 734.309C976.981 734.309 985.252 737.897 988.279 753.888L996.266 759.127C996.266 759.127 993.176 746.877 989.151 740.719C989.151 740.719 996.129 745.772 998.494 760.724L1003.43 764.88C1003.43 764.88 1001.03 755.977 1000.11 753.483C999.198 750.989 999.766 750.53 999.766 750.53C1003.09 755.22 1005.08 760.78 1005.54 766.587C1005.54 766.587 1015.25 775.818 1015.85 775.26Z" fill="#6C63FF"/>
</g>
<defs>
<linearGradient id="paint0_linear" x1="1180.3" y1="1267.09" x2="1180.3" y2="707.949" gradientUnits="userSpaceOnUse">
<stop stop-color="#808080" stop-opacity="0.25"/>
<stop offset="0.54" stop-color="#808080" stop-opacity="0.12"/>
<stop offset="1" stop-color="#808080" stop-opacity="0.1"/>
</linearGradient>
</defs>
</svg>
