<svg width="73" height="110" viewBox="0 0 73 110" fill="none" xmlns="http://www.w3.org/2000/svg">
<g clip-path="url(#clip0_126_25)">
<path d="M18.25 110C28.324 110 36.5 101.787 36.5 91.6666V73.3333H18.25C8.176 73.3333 0 81.5466 0 91.6666C0 101.787 8.176 110 18.25 110Z" fill="#0ACF83"/>
<path d="M0 55C0 44.88 8.176 36.6667 18.25 36.6667H36.5V73.3334H18.25C8.176 73.3334 0 65.12 0 55Z" fill="#A259FF"/>
<path d="M0 18.3333C0 8.21333 8.176 0 18.25 0H36.5V36.6667H18.25C8.176 36.6667 0 28.4533 0 18.3333Z" fill="#F24E1E"/>
<path d="M36.5 0H54.75C64.824 0 73 8.21333 73 18.3333C73 28.4533 64.824 36.6667 54.75 36.6667H36.5V0Z" fill="#FF7262"/>
<path d="M73 55C73 65.12 64.824 73.3334 54.75 73.3334C44.676 73.3334 36.5 65.12 36.5 55C36.5 44.88 44.676 36.6667 54.75 36.6667C64.824 36.6667 73 44.88 73 55Z" fill="#1ABCFE"/>
</g>
<defs>
<clipPath id="clip0_126_25">
<rect width="73" height="110" fill="white"/>
</clipPath>
</defs>
</svg>
