<svg width="80" height="110" viewBox="0 0 80 110" fill="none" xmlns="http://www.w3.org/2000/svg">
<g clip-path="url(#clip0_126_66)">
<path d="M0 88.6888L0.663284 87.7574L32.0398 28.0522L32.1061 27.4202L18.2746 1.36585C17.1158 -0.816666 13.8535 -0.26485 13.4732 2.17831L0 88.6888Z" fill="#FFC24A"/>
<path d="M0.391479 87.9786L0.893233 86.9974L31.941 27.9179L18.1442 1.75756C16.9975 -0.402095 14.0857 0.148444 13.7093 2.566L0.391479 87.9786Z" fill="#FFA712"/>
<g filter="url(#filter0_i_126_66)">
<path d="M0.391479 87.9786L0.893233 86.9974L31.941 27.9179L18.1442 1.75756C16.9975 -0.402095 14.0857 0.148444 13.7093 2.566L0.391479 87.9786Z" fill="black"/>
</g>
<path d="M42.189 47.1278L52.4876 36.5505L42.1861 16.8288C41.2082 14.962 38.4777 14.9566 37.5102 16.8288L32.0066 27.3552V28.2517L42.189 47.1278Z" fill="#F4BD62"/>
<path d="M42.0054 46.6871L52.0174 36.404L42.0054 17.2849C41.0546 15.4701 38.745 15.2799 37.8043 17.1L32.2715 27.7895L32.1061 28.336L42.0054 46.6871Z" fill="#FFA50E"/>
<g filter="url(#filter1_i_126_66)">
<path d="M42.0054 46.6871L52.0174 36.404L42.0054 17.2849C41.0546 15.4701 38.745 15.2799 37.8043 17.1L32.2715 27.7895L32.1061 28.336L42.0054 46.6871Z" fill="black"/>
</g>
<path d="M0 88.6887L0.300655 88.3856L1.39303 87.9403L41.5423 47.8263L42.0509 46.4377L32.0354 27.2978L0 88.6887Z" fill="#F6820C"/>
<path d="M43.4753 108.919L79.8112 88.5966L69.4349 24.51C69.1103 22.5049 66.6574 21.7122 65.2264 23.15L9.15527e-05 88.6888L36.1277 108.917C38.4108 110.196 41.1915 110.196 43.4753 108.919Z" fill="#FDE068"/>
<path d="M79.4856 88.4261L69.1881 24.8261C68.866 22.8362 66.8262 22.0128 65.406 23.4396L0.402954 88.5643L36.1337 108.593C38.3995 109.861 41.1591 109.862 43.4256 108.594L79.4856 88.4261Z" fill="#FCCA3F"/>
<path d="M43.4753 108.32C41.1915 109.598 38.4108 109.597 36.1276 108.319L0.291048 88.3806L6.10352e-05 88.6888L36.1276 108.917C38.4108 110.196 41.1915 110.196 43.4753 108.919L79.8112 88.5966L79.7223 88.0475L43.4753 108.32Z" fill="#EEAB37"/>
</g>
<defs>
<filter id="filter0_i_126_66" x="0.391479" y="0.407837" width="31.5495" height="87.5707" filterUnits="userSpaceOnUse" color-interpolation-filters="sRGB">
<feFlood flood-opacity="0" result="BackgroundImageFix"/>
<feBlend mode="normal" in="SourceGraphic" in2="BackgroundImageFix" result="shape"/>
<feColorMatrix in="SourceAlpha" type="matrix" values="0 0 0 0 0 0 0 0 0 0 0 0 0 0 0 0 0 0 127 0" result="hardAlpha"/>
<feOffset/>
<feGaussianBlur stdDeviation="17.5"/>
<feComposite in2="hardAlpha" operator="arithmetic" k2="-1" k3="1"/>
<feColorMatrix type="matrix" values="0 0 0 0 0 0 0 0 0 0 0 0 0 0 0 0 0 0 0.06 0"/>
<feBlend mode="normal" in2="shape" result="effect1_innerShadow_126_66"/>
</filter>
<filter id="filter1_i_126_66" x="32.1061" y="8.82574" width="20.9113" height="37.8613" filterUnits="userSpaceOnUse" color-interpolation-filters="sRGB">
<feFlood flood-opacity="0" result="BackgroundImageFix"/>
<feBlend mode="normal" in="SourceGraphic" in2="BackgroundImageFix" result="shape"/>
<feColorMatrix in="SourceAlpha" type="matrix" values="0 0 0 0 0 0 0 0 0 0 0 0 0 0 0 0 0 0 127 0" result="hardAlpha"/>
<feOffset dx="1" dy="-9"/>
<feGaussianBlur stdDeviation="3.5"/>
<feComposite in2="hardAlpha" operator="arithmetic" k2="-1" k3="1"/>
<feColorMatrix type="matrix" values="0 0 0 0 0 0 0 0 0 0 0 0 0 0 0 0 0 0 0.09 0"/>
<feBlend mode="normal" in2="shape" result="effect1_innerShadow_126_66"/>
</filter>
<clipPath id="clip0_126_66">
<rect width="80" height="110" fill="white"/>
</clipPath>
</defs>
</svg>
