<svg width="110" height="110" viewBox="0 0 110 110" fill="none" xmlns="http://www.w3.org/2000/svg">
<g clip-path="url(#clip0_126_15)">
<path d="M107.926 50.0988L59.898 2.07473C57.1341 -0.691575 52.648 -0.691575 49.8804 2.07473L39.9075 12.0477L52.5586 24.6988C55.4987 23.7055 58.8697 24.3717 61.2136 26.7156C63.5683 29.0739 64.2297 32.4739 63.2123 35.4236L75.4048 47.6161C78.3545 46.5999 81.7581 47.2576 84.114 49.6172C87.4065 52.9085 87.4065 58.2432 84.114 61.5369C80.8203 64.8307 75.4856 64.8307 72.1907 61.5369C69.7141 59.0579 69.1021 55.4202 70.3561 52.369L58.9856 40.9985L58.9844 70.9209C59.787 71.3192 60.5449 71.849 61.2136 72.5152C64.5061 75.8066 64.5061 81.1412 61.2136 84.4374C57.9199 87.7299 52.5828 87.7299 49.2939 84.4374C46.0014 81.1412 46.0014 75.8066 49.2939 72.5152C50.1074 71.703 51.0488 71.0886 52.0529 70.6759V40.4747C51.0488 40.0643 50.1086 39.4536 49.2939 38.6353C46.7991 36.1442 46.1993 32.4835 47.4774 29.4203L35.0074 16.9478L2.07606 49.8767C-0.69145 52.6454 -0.69145 57.1316 2.07606 59.8979L50.1037 107.923C52.8688 110.689 57.3538 110.689 60.1225 107.923L107.926 60.1212C110.692 57.3537 110.692 52.8651 107.926 50.0988Z" fill="#DE4C36"/>
</g>
<defs>
<clipPath id="clip0_126_15">
<rect width="110" height="110" fill="white"/>
</clipPath>
</defs>
</svg>
