<svg width="111" height="114" viewBox="0 0 111 114" fill="none" xmlns="http://www.w3.org/2000/svg">
<g clip-path="url(#clip0_126_80)">
<path d="M110.937 25.7449C110.979 25.8967 111 26.0531 111 26.2102V50.6374C111 51.2755 110.657 51.8649 110.101 52.1824L89.5149 63.9864V87.3827C89.5149 88.0194 89.1751 88.6072 88.6207 88.9278L45.6483 113.564C45.5499 113.62 45.4426 113.655 45.3353 113.693C45.2951 113.707 45.2571 113.731 45.2146 113.742C44.9142 113.821 44.5985 113.821 44.2981 113.742C44.2489 113.729 44.2042 113.702 44.1572 113.684C44.0589 113.649 43.956 113.618 43.8621 113.564L0.898659 88.9278C0.343134 88.6099 0 88.0208 0 87.3827V14.1013C0 13.941 0.0223547 13.7852 0.0625931 13.6338C0.076006 13.5826 0.107303 13.5358 0.125186 13.4846C0.158718 13.3911 0.190015 13.2954 0.239195 13.2086C0.272727 13.1507 0.321908 13.1039 0.362146 13.0505C0.413562 12.9793 0.460507 12.9058 0.520864 12.8434C0.57228 12.7922 0.639344 12.7544 0.697466 12.7099C0.762295 12.6564 0.820417 12.5986 0.894188 12.5563H0.896423L22.3793 0.238051C22.9329 -0.0791876 23.6141 -0.0791876 24.1677 0.238051L45.6505 12.5563H45.655C45.7265 12.6008 45.7869 12.6564 45.8517 12.7076C45.9098 12.7522 45.9747 12.7922 46.0261 12.8412C46.0887 12.9058 46.1334 12.9793 46.187 13.0505C46.225 13.1039 46.2765 13.1507 46.3078 13.2086C46.3592 13.2976 46.3882 13.3911 46.424 13.4846C46.4419 13.5358 46.4732 13.5826 46.4866 13.636C46.5277 13.7877 46.5488 13.9442 46.5492 14.1013V59.8721L64.4508 49.6066V26.208C64.4508 26.0522 64.4732 25.8941 64.5134 25.7449C64.5291 25.6915 64.5581 25.6448 64.576 25.5936C64.6118 25.5 64.6431 25.4043 64.6923 25.3175C64.7258 25.2596 64.775 25.2129 64.813 25.1594C64.8666 25.0882 64.9113 25.0147 64.9739 24.9524C65.0253 24.9012 65.0902 24.8633 65.1483 24.8188C65.2154 24.7654 65.2735 24.7075 65.345 24.6652H65.3472L86.8323 12.347C87.3858 12.0293 88.0673 12.0293 88.6207 12.347L110.104 24.6652C110.18 24.7097 110.238 24.7654 110.305 24.8166C110.361 24.8611 110.425 24.9012 110.477 24.9501C110.539 25.0147 110.584 25.0882 110.638 25.1594C110.678 25.2129 110.727 25.2596 110.759 25.3175C110.81 25.4043 110.839 25.5 110.875 25.5936C110.895 25.6448 110.924 25.6915 110.937 25.7449ZM107.419 49.6066V29.2937L99.9009 33.6038L89.5149 39.5592V59.8721L107.421 49.6066H107.419ZM85.9359 86.3519V66.0257L75.7198 71.8363L46.5469 88.4179V108.936L85.9359 86.3519ZM3.58122 17.1848V86.3519L42.9657 108.933V88.4202L22.3905 76.8233L22.3838 76.8188L22.3748 76.8144C22.3055 76.7743 22.2474 76.7164 22.1826 76.6675C22.1267 76.6229 22.0618 76.5873 22.0127 76.5383L22.0082 76.5317C21.9501 76.476 21.9098 76.407 21.8607 76.3446C21.8159 76.2845 21.7623 76.2333 21.7265 76.171L21.7243 76.1643C21.6841 76.0975 21.6595 76.0174 21.6304 75.9417C21.6013 75.8749 21.5633 75.8125 21.5455 75.7413V75.7391C21.5231 75.6545 21.5186 75.5654 21.5097 75.4786C21.5007 75.4118 21.4829 75.345 21.4829 75.2782V75.2738V27.4503L11.0991 21.4927L3.58122 17.187V17.1848ZM23.2757 3.84023L5.3763 14.1013L23.2712 24.3624L41.1684 14.0991L23.2712 3.84023H23.2757ZM32.5842 67.878L42.968 61.9248V17.1848L35.4501 21.4949L25.0641 27.4503V72.1903L32.5842 67.878ZM87.7265 15.9492L69.8294 26.2102L87.7265 36.4713L105.621 26.208L87.7265 15.9492ZM85.9359 39.5592L75.5499 33.6038L68.032 29.2937V49.6066L78.4158 55.5598L85.9359 59.8721V39.5592ZM44.7541 85.3345L71.0052 70.4093L84.1274 62.9511L66.2437 52.6967L45.6528 64.5029L26.886 75.2627L44.7541 85.3345Z" fill="#FF2D20"/>
</g>
<defs>
<clipPath id="clip0_126_80">
<rect width="111" height="114" fill="white"/>
</clipPath>
</defs>
</svg>
