<svg width="170" height="116" viewBox="0 0 170 116" fill="none" xmlns="http://www.w3.org/2000/svg">
<g clip-path="url(#clip0_126_2)">
<path d="M50.5715 76.5457L55.7381 93.3266C56.8987 97.1365 57.3828 99.7963 57.1892 101.312C60.0149 93.7367 61.989 85.481 63.1121 76.5457H69.3244C66.6534 91.0925 63.1301 101.664 58.757 108.258C55.3496 113.34 51.6168 115.88 47.5521 115.88C46.4686 115.88 45.1324 115.553 43.5468 114.902V111.395C44.3214 111.509 45.2303 111.57 46.2756 111.57C48.1719 111.57 49.7001 111.044 50.8628 109.994C52.2551 108.714 52.9519 107.276 52.9519 105.683C52.9519 104.595 52.4084 102.361 51.3264 98.9828L44.1277 76.5457H50.5715ZM11.0314 66.2315L20.4946 95.1341H20.5527L30.0739 66.2315H37.8527C39.5561 80.565 40.5619 93.6799 40.8709 105.567H34.3125C34.0818 94.4548 33.4424 84.0055 32.3973 74.2172H32.3395L22.3527 105.567H17.3585L7.43222 74.2172H7.37374C6.63721 83.6176 6.17384 94.0668 5.9806 105.567H0C0.386478 91.5809 1.35369 78.4701 2.90162 66.2315H11.0314Z" fill="#00758F"/>
<path d="M117.04 65.6478C127.219 65.6478 132.309 72.1581 132.309 85.1715C132.309 92.2433 130.779 97.5848 127.72 101.194C127.169 101.853 126.56 102.423 125.918 102.951L133.122 106.516L133.115 106.516L130.557 110.937L121.176 105.458C119.621 105.919 117.91 106.149 116.046 106.149C111.048 106.149 107.315 104.691 104.846 101.778C102.137 98.5562 100.783 93.4838 100.783 86.5695C100.783 79.5378 102.311 74.2163 105.37 70.6031C108.156 67.298 112.047 65.6478 117.04 65.6478ZM85.8691 65.7053C89.5073 65.7053 92.8156 66.6799 95.7951 68.622L94.2816 71.9977C91.7321 70.9128 89.2179 70.3682 86.7392 70.3682C84.7279 70.3682 83.1779 70.8529 82.0974 71.8279C81.0108 72.7946 80.339 74.0385 80.339 75.5547C80.339 77.8843 81.9972 79.905 85.0587 81.6122C85.8823 82.0605 86.9551 82.6583 88.0574 83.2778L88.2858 83.4063C88.3239 83.4277 88.3621 83.4492 88.4002 83.4707L88.6291 83.5996C88.6672 83.6211 88.7053 83.6426 88.7434 83.664L88.9718 83.7929C91.2896 85.1009 93.4702 86.3493 93.4702 86.3493C96.5317 88.5247 98.0573 90.8439 98.0573 94.664C98.0573 97.9999 96.8362 100.739 94.402 102.881C91.9658 105.015 88.6928 106.084 84.5943 106.084C80.7609 106.084 77.0459 104.853 73.4472 102.411L75.1307 99.0325C78.2276 100.586 81.03 101.362 83.5462 101.362C85.9066 101.362 87.754 100.835 89.0904 99.7933C90.4239 98.7441 91.2232 97.2808 91.2232 95.4248C91.2232 93.0892 89.6004 91.0927 86.6229 89.4179C85.8497 88.9921 84.8595 88.4359 83.8354 87.8565L83.6074 87.7274C83.1885 87.4902 82.7663 87.2504 82.3532 87.0153L82.1288 86.8875C80.1186 85.7429 78.3803 84.7427 78.3803 84.7427C75.4038 82.5634 73.9116 80.225 73.9116 76.3722C73.9116 73.1857 75.0245 70.6102 77.2472 68.6506C79.475 66.6871 82.3493 65.7053 85.8691 65.7053ZM144.272 66.2315V100.728H156.636V105.567H138.001V66.2315H144.272ZM163.507 100.744V101.561H162.147V105.563H161.108V101.561H159.696V100.744H163.507ZM166.017 100.744L167.322 104.029L168.521 100.744H169.994V105.563H169.015V101.895L167.65 105.563H166.944L165.577 101.895H165.524V105.563H164.597V100.744H166.017ZM116.4 70.4854C110.401 70.4854 107.401 75.441 107.401 85.3459C107.401 91.0195 108.196 95.1341 109.783 97.6982C111.253 100.072 113.556 101.256 116.691 101.256C122.69 101.256 125.691 96.2615 125.691 86.2773C125.691 80.683 124.895 76.6041 123.31 74.0387C121.838 71.6706 119.536 70.4854 116.4 70.4854Z" fill="#F29111"/>
<path d="M100.678 2.4374C102.668 -2.45721 109.625 1.24929 112.326 2.95936C112.987 3.38688 113.746 4.29065 114.505 4.62475C115.689 4.67146 116.871 4.76387 118.057 4.81363C120.281 5.3366 122.364 5.76412 124.116 6.76335C132.261 11.5645 137.562 16.4571 142.442 24.5383C143.484 26.2504 144.005 28.1027 144.857 29.9549C146.038 32.716 147.367 35.6142 148.739 38.2253C149.353 39.4629 149.828 40.8394 150.681 41.8847C151.014 42.3626 151.96 42.5034 152.526 42.789C154.089 43.599 155.983 44.2139 157.453 45.1647C160.198 46.8783 162.853 48.9204 165.266 51.0109C166.166 51.8181 166.779 52.9605 167.636 53.8141V54.2449C166.875 54.4785 166.117 54.7178 165.358 54.9093C163.701 55.3358 162.233 55.2393 160.625 55.6658C159.632 55.9541 158.399 56.3349 157.357 56.4314C157.403 56.4782 157.453 56.5286 157.453 56.5286C158.066 58.2818 161.382 59.7079 162.899 60.7562C164.741 62.0871 166.448 63.7015 167.822 65.5548C168.296 66.028 168.771 66.4585 169.243 66.9301C169.573 67.408 169.666 68.0261 170 68.4526V68.5965C169.63 68.4658 169.364 68.2167 169.112 67.956L168.962 67.799C168.811 67.6423 168.659 67.4891 168.486 67.3625C167.441 66.6477 166.403 65.7928 165.358 65.1284C163.561 63.9872 161.477 63.3247 159.632 62.1791C158.589 61.5139 157.594 60.7562 156.6 59.9954C155.698 59.3283 154.706 58.047 154.139 57.0966C153.805 56.5714 153.76 55.9541 153.378 55.5746C153.447 54.9399 154.027 54.7512 154.613 54.5963L154.748 54.5609C154.95 54.5083 155.148 54.4558 155.321 54.3865C157.782 53.3401 160.717 52.9605 164.507 53.0557C164.365 52.1029 161.996 50.9161 161.24 50.3457C159.723 49.2509 158.116 48.1084 156.507 47.112C155.654 46.59 154.184 46.2092 153.239 45.7828C151.96 45.2596 149.118 44.7367 148.41 43.7404C147.206 42.1696 146.342 40.2959 145.502 38.4032L145.274 37.8867C145.197 37.7145 145.121 37.5424 145.045 37.3705C144.052 35.0915 142.82 32.7153 141.826 30.3817C141.305 29.2433 141.067 28.2441 140.497 27.1525C137.042 20.4523 131.928 14.8428 125.727 10.8977C123.689 9.61411 121.417 8.426 118.909 7.61869C117.487 7.18914 115.782 7.42676 114.267 7.09673H113.271C112.42 6.85708 111.71 5.95431 111.046 5.47806C109.58 4.48187 108.112 3.81267 106.359 3.10183C105.744 2.81648 103.99 2.15237 103.378 2.67533C102.999 2.77079 102.806 2.91398 102.713 3.29478C102.336 3.86345 102.668 4.7195 102.903 5.24349C103.614 6.76265 104.607 7.66541 105.509 8.94898C106.311 10.0873 107.308 11.3709 107.876 12.6088C109.103 15.2693 109.675 18.2173 110.812 20.8778C111.234 21.8781 111.901 23.0164 112.515 23.9192C113.035 24.6351 113.981 25.153 114.267 26.0598C114.838 27.0103 113.413 30.1471 113.083 31.1433C111.85 35.041 112.089 40.4589 113.509 43.8378C113.535 43.8968 113.56 43.9562 113.585 44.016L113.661 44.1963C114.179 45.4337 114.735 46.7662 116.114 47.1124C116.209 47.0179 116.114 47.0676 116.302 47.0179C116.636 44.4027 116.73 41.8843 117.63 39.8382C118.15 38.5589 119.189 37.6545 119.901 36.6101C120.376 36.8945 120.376 37.7525 120.659 38.3201C121.275 39.7926 121.937 41.407 122.697 42.8838C124.256 45.9252 126.01 48.8736 127.998 51.5341C128.664 52.4841 129.609 53.5301 130.461 54.3862C130.84 54.7174 131.265 54.9089 131.55 55.3354H131.644V55.479C130.223 54.9546 129.323 53.4837 128.19 52.6249C126.057 51.0105 123.502 48.586 122.032 46.2595C121.417 44.9243 120.752 43.6443 120.09 42.3154V42.2194C119.806 42.5991 119.901 42.9759 119.76 43.5502C119.145 45.9252 119.618 48.6344 117.488 49.4884C115.073 50.4888 113.271 47.874 112.515 46.686C110.099 42.7418 109.437 36.0884 111.141 30.7175C111.519 29.5284 111.571 28.1027 112.232 27.1532C112.089 26.2951 111.428 26.0605 111.046 25.5345C110.383 24.6358 109.816 23.5888 109.297 22.5906C108.3 20.6409 107.591 18.3114 106.834 16.2205C106.501 15.3665 106.406 14.5094 106.074 13.7011C105.509 12.4673 104.466 11.2294 103.661 10.1378C102.572 8.56887 99.3989 5.52853 100.678 2.4374ZM116.208 11.7489C116.334 11.8759 116.487 11.9869 116.645 12.0961L116.836 12.2271C117.09 12.403 117.335 12.5887 117.486 12.8416C117.725 13.1757 117.77 13.5057 118.056 13.8408C118.056 14.9832 117.725 15.7428 117.058 16.216C117.058 16.216 117.012 16.2658 116.965 16.3125C116.587 15.5509 116.255 14.7934 115.874 14.0328C115.404 13.3686 114.741 12.8416 114.358 12.083H114.266V11.9876C114.838 11.8464 115.404 11.7489 116.208 11.7489H116.208Z" fill="#00758F"/>
</g>
<defs>
<clipPath id="clip0_126_2">
<rect width="170" height="116" fill="white"/>
</clipPath>
</defs>
</svg>
