<svg width="101" height="114" viewBox="0 0 101 114" fill="none" xmlns="http://www.w3.org/2000/svg">
<g clip-path="url(#clip0_126_91)">
<path d="M50.5 113.788C48.9317 113.788 47.4679 113.37 46.1087 112.639L32.2029 104.38C30.1118 103.23 31.1574 102.812 31.7847 102.603C34.6077 101.662 35.1304 101.453 38.058 99.7805C38.3716 99.5715 38.7899 99.676 39.1035 99.8851L49.7681 106.262C50.1863 106.471 50.7091 106.471 51.0228 106.262L92.7402 82.1138C93.1584 81.9047 93.3675 81.4866 93.3675 80.9639V32.7723C93.3675 32.2497 93.1584 31.8315 92.7402 31.6224L51.0228 7.57893C50.6046 7.36986 50.0818 7.36986 49.7681 7.57893L8.05072 31.6224C7.63251 31.8315 7.4234 32.3542 7.4234 32.7723V80.9639C7.4234 81.382 7.63251 81.9047 8.05072 82.1138L19.4472 88.6996C25.6159 91.8357 29.4845 88.1769 29.4845 84.5181V36.9538C29.4845 36.3266 30.0072 35.6994 30.7391 35.6994H36.0714C36.6988 35.6994 37.3261 36.2221 37.3261 36.9538V84.5181C37.3261 92.7766 32.8302 97.5853 24.9886 97.5853C22.5839 97.5853 20.7019 97.5853 15.3696 94.9718L4.3913 88.6996C1.67288 87.1316 0 84.2045 0 81.0684V32.8769C0 29.7408 1.67288 26.8137 4.3913 25.2457L46.1087 1.09764C48.7226 -0.365879 52.2774 -0.365879 54.8913 1.09764L96.6087 25.2457C99.3271 26.8137 101 29.7408 101 32.8769V81.0684C101 84.2045 99.3271 87.1316 96.6087 88.6996L54.8913 112.848C53.5321 113.475 51.9638 113.788 50.5 113.788ZM63.3602 80.6503C45.0631 80.6503 41.2992 72.2873 41.2992 65.1788C41.2992 64.5516 41.8219 63.9244 42.5538 63.9244H47.9907C48.618 63.9244 49.1408 64.3425 49.1408 64.9697C49.9772 70.5102 52.382 73.2281 63.4648 73.2281C72.2474 73.2281 76.0114 71.2419 76.0114 66.5378C76.0114 63.8198 74.9658 61.8336 61.2692 60.4746C49.8727 59.3247 42.7629 56.8158 42.7629 47.7211C42.7629 39.2536 49.8727 34.2359 61.7919 34.2359C75.175 34.2359 81.7619 38.8355 82.5983 48.871C82.5983 49.1846 82.4938 49.4983 82.2847 49.8119C82.0756 50.0209 81.7619 50.23 81.4482 50.23H76.0114C75.4886 50.23 74.9658 49.8119 74.8613 49.2892C73.6066 43.5396 70.3654 41.658 61.7919 41.658C52.1729 41.658 51.0228 45.0032 51.0228 47.512C51.0228 50.5436 52.382 51.4845 65.3468 53.157C78.207 54.8296 84.2712 57.234 84.2712 66.2242C84.1667 75.4234 76.6387 80.6503 63.3602 80.6503Z" fill="#539E43"/>
</g>
<defs>
<clipPath id="clip0_126_91">
<rect width="101" height="114" fill="white"/>
</clipPath>
</defs>
</svg>
