<svg width="183" height="110" viewBox="0 0 183 110" fill="none" xmlns="http://www.w3.org/2000/svg">
<g clip-path="url(#clip0_126_63)">
<path d="M91.5 0C67.1 0 51.85 12.1905 45.75 36.5714C54.9 24.381 65.575 19.8095 77.775 22.8571C84.7358 24.596 89.711 29.6418 95.2179 35.2274C104.189 44.3263 114.572 54.8571 137.25 54.8571C161.65 54.8571 176.9 42.6667 183 18.2857C173.85 30.4762 163.175 35.0476 150.975 32C144.014 30.2612 139.039 25.2153 133.532 19.6297C124.561 10.5309 114.178 0 91.5 0ZM45.75 54.8571C21.35 54.8571 6.1 67.0476 0 91.4286C9.15 79.2381 19.825 74.6667 32.025 77.7143C38.9858 79.4531 43.961 84.499 49.4679 90.0846C58.439 99.1834 68.8219 109.714 91.5 109.714C115.9 109.714 131.15 97.5238 137.25 73.1429C128.1 85.3333 117.425 89.9048 105.225 86.8571C98.2642 85.1183 93.289 80.0725 87.7821 74.4869C78.811 65.388 68.4281 54.8571 45.75 54.8571Z" fill="url(#paint0_linear_126_63)"/>
</g>
<defs>
<linearGradient id="paint0_linear_126_63" x1="-5.08333" y1="35.1086" x2="152.906" y2="126.272" gradientUnits="userSpaceOnUse">
<stop stop-color="#2298BD"/>
<stop offset="1" stop-color="#0ED7B5"/>
</linearGradient>
<clipPath id="clip0_126_63">
<rect width="183" height="110" fill="white"/>
</clipPath>
</defs>
</svg>
