<svg width="110" height="110" viewBox="0 0 110 110" fill="none" xmlns="http://www.w3.org/2000/svg">
<g clip-path="url(#clip0_126_53)">
<path d="M109.844 54.8639C109.844 85.1626 85.2809 109.726 54.9803 109.726C24.679 109.726 0.116089 85.1626 0.116089 54.8639C0.116089 24.5632 24.6793 0 54.9803 0C85.2813 0 109.844 24.5632 109.844 54.8639Z" fill="#DD4814"/>
<path d="M17.6745 47.5374C13.6271 47.5374 10.348 50.8168 10.348 54.8639C10.348 58.909 13.6271 62.188 17.6745 62.188C21.7196 62.188 24.9987 58.909 24.9987 54.8639C24.9987 50.8168 21.7196 47.5374 17.6745 47.5374ZM69.9738 80.829C66.4703 82.8526 65.269 87.33 67.2929 90.8316C69.3142 94.3351 73.7916 95.5361 77.2951 93.5126C80.7983 91.4913 81.9996 87.0139 79.9761 83.51C77.9548 80.0087 73.4748 78.8077 69.9738 80.829ZM33.5851 54.8639C33.5851 47.6251 37.1806 41.23 42.6822 37.3574L37.3271 28.388C30.9183 32.6719 26.15 39.218 24.1683 46.8848C26.4806 48.7716 27.9606 51.6439 27.9606 54.8635C27.9606 58.0813 26.4806 60.9535 24.1683 62.8403C26.1474 70.5093 30.9158 77.0558 37.3271 81.3397L42.6822 72.368C37.1806 68.4977 33.5851 62.1029 33.5851 54.8639ZM54.9803 33.4664C66.1577 33.4664 75.328 42.0364 76.2906 52.9658L86.728 52.8119C86.2145 44.7432 82.6896 37.4997 77.2735 32.1732C74.4883 33.2255 71.2712 33.0645 68.4906 31.4616C65.7051 29.8542 63.9587 27.1426 63.4813 24.199C60.7742 23.4519 57.9251 23.0429 54.9796 23.0429C49.9161 23.0429 45.1287 24.2322 40.878 26.3361L45.9677 35.4568C48.7058 34.1826 51.7603 33.4664 54.9803 33.4664ZM54.9803 76.259C51.7603 76.259 48.7058 75.5426 45.968 74.2687L40.8783 83.389C45.129 85.4955 49.9164 86.6851 54.9803 86.6851C57.9258 86.6851 60.7748 86.2758 63.4816 85.5264C63.959 82.5829 65.7061 79.8739 68.4909 78.2635C71.2735 76.658 74.4887 76.5 77.2738 77.5522C82.69 72.2258 86.2148 64.9822 86.7283 56.9135L76.2883 56.7597C75.328 67.6919 66.158 76.259 54.9803 76.259ZM69.9712 28.8942C73.4748 30.9174 77.9525 29.719 79.9738 26.2155C81.9974 22.7119 80.799 18.2342 77.2951 16.2103C73.7916 14.189 69.3142 15.39 67.29 18.8935C65.269 22.3951 66.47 26.8729 69.9712 28.8942Z" fill="white"/>
</g>
<defs>
<clipPath id="clip0_126_53">
<rect width="110" height="110" fill="white"/>
</clipPath>
</defs>
</svg>
