<svg width="111" height="110" viewBox="0 0 111 110" fill="none" xmlns="http://www.w3.org/2000/svg">
<g clip-path="url(#clip0_126_32)">
<mask id="mask0_126_32" style="mask-type:alpha" maskUnits="userSpaceOnUse" x="0" y="0" width="111" height="110">
<path d="M78.4057 109.396C80.1472 110.074 82.1331 110.03 83.8909 109.186L106.655 98.2452C109.047 97.0956 110.568 94.6772 110.568 92.0246V17.8414C110.568 15.1887 109.047 12.7708 106.655 11.6211L83.8909 0.68033C81.5841 -0.428307 78.8843 -0.15676 76.8599 1.31333C76.5706 1.52334 76.295 1.75781 76.0367 2.01622L32.4573 41.7264L13.4751 27.3347C11.7081 25.995 9.23645 26.1048 7.59529 27.5959L1.50708 33.1273C-0.500378 34.9512 -0.50268 38.1055 1.50211 39.9324L17.9641 54.9328L1.50211 69.9334C-0.50268 71.7603 -0.500378 74.9146 1.50708 76.7385L7.59529 82.2697C9.23645 83.761 11.7081 83.8706 13.4751 82.5311L32.4573 68.1392L76.0367 107.85C76.726 108.539 77.5354 109.057 78.4057 109.396ZM82.9429 29.8629L49.8761 54.9328L82.9429 80.0028V29.8629Z" fill="white"/>
</mask>
<g mask="url(#mask0_126_32)">
<path d="M106.723 11.6385L83.9407 0.682613C81.3039 -0.585524 78.1523 -0.0505952 76.0826 2.01643L1.50302 69.9337C-0.502986 71.7606 -0.50068 74.9149 1.50799 76.7388L7.59989 82.27C9.24209 83.7613 11.7152 83.8709 13.4833 82.5314L103.294 14.4807C106.307 12.1977 110.635 14.3441 110.635 18.1215V17.8573C110.635 15.2058 109.114 12.7887 106.723 11.6385Z" fill="#0065A9"/>
<path d="M106.723 98.2274L83.9407 109.183C81.3039 110.451 78.1523 109.916 76.0826 107.849L1.50302 39.9322C-0.502986 38.1054 -0.50068 34.951 1.50799 33.1271L7.59989 27.5957C9.24209 26.1046 11.7152 25.9948 13.4833 27.3345L103.294 95.385C106.307 97.6679 110.635 95.5218 110.635 91.7441V92.0085C110.635 94.6598 109.114 97.0769 106.723 98.2274Z" fill="#007ACC"/>
<path d="M83.8693 109.192C81.2317 110.459 78.08 109.924 76.0103 107.857C78.5603 110.403 82.9209 108.599 82.9209 104.997V4.88201C82.9209 1.27993 78.5603 -0.524015 76.0103 2.02305C78.08 -0.044167 81.2317 -0.57985 83.8693 0.687167L106.647 11.628C109.041 12.7776 110.563 15.1956 110.563 17.8483V92.0316C110.563 94.6842 109.041 97.1021 106.647 98.2518L83.8693 109.192Z" fill="#1F9CF0"/>
<path d="M78.4058 109.396C80.1473 110.073 82.1332 110.03 83.8906 109.185L106.655 98.2447C109.047 97.095 110.568 94.6771 110.568 92.0245V17.8412C110.568 15.1885 109.047 12.7706 106.655 11.6209L83.8906 0.680149C81.5842 -0.42849 78.8844 -0.156943 76.8596 1.31315C76.5707 1.52315 76.2951 1.75763 76.0364 2.01603L32.4573 41.7262L13.4751 27.3345C11.7081 25.9948 9.23643 26.1046 7.59527 27.5957L1.50708 33.1271C-0.500378 34.951 -0.50268 38.1054 1.50211 39.9322L17.9641 54.9327L1.50211 69.9332C-0.50268 71.7602 -0.500378 74.9145 1.50708 76.7384L7.59527 82.2696C9.23643 83.7609 11.7081 83.8705 13.4751 82.531L32.4573 68.1391L76.0364 107.849C76.7257 108.538 77.5356 109.057 78.4058 109.396ZM82.943 29.8627L49.8763 54.9327L82.943 80.0027V29.8627Z" fill="url(#paint0_linear_126_32)" fill-opacity="0.25"/>
</g>
</g>
<defs>
<linearGradient id="paint0_linear_126_32" x1="55.2841" y1="-4.30283e-07" x2="55.2841" y2="109.865" gradientUnits="userSpaceOnUse">
<stop stop-color="white"/>
<stop offset="1" stop-color="white" stop-opacity="0"/>
</linearGradient>
<clipPath id="clip0_126_32">
<rect width="111" height="110" fill="white"/>
</clipPath>
</defs>
</svg>
